<svg width="26" height="29" viewBox="0 0 26 29" fill="none" xmlns="http://www.w3.org/2000/svg">
<path d="M23.2932 7.16092H17.245C17.1381 7.16092 17.0355 7.11994 16.9599 7.04701C16.8843 6.97408 16.8418 6.87517 16.8418 6.77203V0.938694C16.8418 0.835554 16.8843 0.736638 16.9599 0.663708C17.0355 0.590777 17.1381 0.549805 17.245 0.549805C17.3519 0.549805 17.4545 0.590777 17.5301 0.663708C17.6057 0.736638 17.6482 0.835554 17.6482 0.938694V6.38314H23.2932C23.4001 6.38314 23.5027 6.42411 23.5783 6.49704C23.6539 6.56997 23.6964 6.66889 23.6964 6.77203C23.6964 6.87517 23.6539 6.97408 23.5783 7.04701C23.5027 7.11994 23.4001 7.16092 23.2932 7.16092Z" fill="#3E00FF"/>
<path d="M23.2924 11.0366C23.1854 11.0366 23.0829 10.9956 23.0073 10.9227C22.9316 10.8498 22.8892 10.7508 22.8892 10.6477V6.93303L17.0772 1.32758H5.14779C4.72004 1.32758 4.3098 1.49147 4.00733 1.78319C3.70487 2.07492 3.53494 2.47058 3.53494 2.88314V10.5186C3.53494 10.6217 3.49246 10.7206 3.41684 10.7936C3.34123 10.8665 3.23867 10.9075 3.13173 10.9075C3.02479 10.9075 2.92223 10.8665 2.84661 10.7936C2.771 10.7206 2.72852 10.6217 2.72852 10.5186V2.88314C2.72852 2.2643 2.9834 1.67081 3.43711 1.23322C3.89081 0.795638 4.50616 0.549805 5.14779 0.549805H17.2442C17.2972 0.549714 17.3496 0.559696 17.3986 0.579181C17.4476 0.598665 17.4921 0.62727 17.5297 0.663361L23.5778 6.49669C23.6153 6.53288 23.6449 6.57582 23.6651 6.62306C23.6853 6.6703 23.6957 6.72092 23.6956 6.77203V10.6477C23.6956 10.6988 23.6852 10.7493 23.6649 10.7965C23.6446 10.8437 23.6149 10.8866 23.5775 10.9227C23.54 10.9588 23.4956 10.9874 23.4467 11.007C23.3978 11.0265 23.3453 11.0366 23.2924 11.0366Z" fill="#3E00FF"/>
<path d="M21.2763 28.5497H5.14779C4.50616 28.5497 3.89081 28.3039 3.43711 27.8663C2.9834 27.4287 2.72852 26.8352 2.72852 26.2164V20.383C2.72852 20.2799 2.771 20.181 2.84661 20.108C2.92223 20.0351 3.02479 19.9941 3.13173 19.9941C3.23867 19.9941 3.34123 20.0351 3.41684 20.108C3.49246 20.181 3.53494 20.2799 3.53494 20.383V26.2164C3.53494 26.6289 3.70487 27.0246 4.00733 27.3163C4.3098 27.608 4.72004 27.7719 5.14779 27.7719H21.2763C21.7041 27.7719 22.1143 27.608 22.4168 27.3163C22.7192 27.0246 22.8892 26.6289 22.8892 26.2164V20.383C22.8892 20.2799 22.9316 20.181 23.0073 20.108C23.0829 20.0351 23.1854 19.9941 23.2924 19.9941C23.3993 19.9941 23.5019 20.0351 23.5775 20.108C23.6531 20.181 23.6956 20.2799 23.6956 20.383V26.2164C23.6956 26.8352 23.4407 27.4287 22.987 27.8663C22.5333 28.3039 21.9179 28.5497 21.2763 28.5497Z" fill="#3E00FF"/>
<path d="M19.2603 20.7719H7.16395C7.05702 20.7719 6.95446 20.7309 6.87884 20.658C6.80322 20.5851 6.76074 20.4862 6.76074 20.383C6.76074 20.2799 6.80322 20.181 6.87884 20.108C6.95446 20.0351 7.05702 19.9941 7.16395 19.9941H19.2603C19.3673 19.9941 19.4698 20.0351 19.5455 20.108C19.6211 20.181 19.6636 20.2799 19.6636 20.383C19.6636 20.4862 19.6211 20.5851 19.5455 20.658C19.4698 20.7309 19.3673 20.7719 19.2603 20.7719Z" fill="#3E00FF"/>
<path d="M13.2121 24.6606H7.16395C7.05702 24.6606 6.95446 24.6196 6.87884 24.5467C6.80322 24.4738 6.76074 24.3748 6.76074 24.2717C6.76074 24.1686 6.80322 24.0696 6.87884 23.9967C6.95446 23.9238 7.05702 23.8828 7.16395 23.8828H13.2121C13.3191 23.8828 13.4216 23.9238 13.4973 23.9967C13.5729 24.0696 13.6154 24.1686 13.6154 24.2717C13.6154 24.3748 13.5729 24.4738 13.4973 24.5467C13.4216 24.6196 13.3191 24.6606 13.2121 24.6606Z" fill="#3E00FF"/>
<path d="M23.2928 20.7722H3.13217C2.49054 20.7722 1.87518 20.5264 1.42148 20.0888C0.967778 19.6512 0.712891 19.0577 0.712891 18.4389V12.4632C0.712891 11.8444 0.967778 11.2509 1.42148 10.8133C1.87518 10.3757 2.49054 10.1299 3.13217 10.1299H3.1483L23.3089 10.259C23.9473 10.2647 24.5576 10.5129 25.0076 10.9496C25.4576 11.3864 25.711 11.9766 25.7129 12.5923V18.4389C25.7129 18.7454 25.6503 19.0488 25.5287 19.332C25.407 19.6151 25.2288 19.8724 25.004 20.0891C24.7793 20.3058 24.5125 20.4776 24.2189 20.5948C23.9253 20.712 23.6106 20.7723 23.2928 20.7722ZM3.13217 10.9077C2.70441 10.9077 2.29418 11.0715 1.99171 11.3633C1.68924 11.655 1.51932 12.0507 1.51932 12.4632V18.4389C1.51932 18.8514 1.68924 19.2471 1.99171 19.5388C2.29418 19.8306 2.70441 19.9944 3.13217 19.9944H23.2928C23.7206 19.9944 24.1308 19.8306 24.4333 19.5388C24.7357 19.2471 24.9057 18.8514 24.9057 18.4389V12.5923C24.9044 12.1818 24.7354 11.7882 24.4353 11.497C24.1352 11.2058 23.7282 11.0405 23.3025 11.0368L3.14184 10.9077H3.13217Z" fill="#3E00FF"/>
<path d="M9.67285 18H8.76172L8.76758 17.417H9.67285C9.93652 17.417 10.1572 17.3594 10.335 17.2441C10.5146 17.1289 10.6494 16.9639 10.7393 16.749C10.8311 16.5342 10.877 16.2783 10.877 15.9814V15.75C10.877 15.5195 10.8506 15.3154 10.7979 15.1377C10.7471 14.96 10.6709 14.8105 10.5693 14.6895C10.4697 14.5684 10.3467 14.4766 10.2002 14.4141C10.0557 14.3516 9.88867 14.3203 9.69922 14.3203H8.74414V13.7344H9.69922C9.98242 13.7344 10.2412 13.7822 10.4756 13.8779C10.71 13.9717 10.9121 14.1074 11.082 14.2852C11.2539 14.4629 11.3857 14.6758 11.4775 14.9238C11.5693 15.1719 11.6152 15.4492 11.6152 15.7559V15.9814C11.6152 16.2881 11.5693 16.5654 11.4775 16.8135C11.3857 17.0615 11.2539 17.2744 11.082 17.4521C10.9102 17.6279 10.7051 17.7637 10.4668 17.8594C10.2305 17.9531 9.96582 18 9.67285 18ZM9.16895 13.7344V18H8.43359V13.7344H9.16895ZM12.1484 16.4502V16.3828C12.1484 16.1543 12.1816 15.9424 12.248 15.7471C12.3145 15.5498 12.4102 15.3789 12.5352 15.2344C12.6621 15.0879 12.8164 14.9746 12.998 14.8945C13.1816 14.8125 13.3887 14.7715 13.6191 14.7715C13.8516 14.7715 14.0586 14.8125 14.2402 14.8945C14.4238 14.9746 14.5791 15.0879 14.7061 15.2344C14.833 15.3789 14.9297 15.5498 14.9961 15.7471C15.0625 15.9424 15.0957 16.1543 15.0957 16.3828V16.4502C15.0957 16.6787 15.0625 16.8906 14.9961 17.0859C14.9297 17.2812 14.833 17.4521 14.7061 17.5986C14.5791 17.7432 14.4248 17.8564 14.2432 17.9385C14.0615 18.0186 13.8555 18.0586 13.625 18.0586C13.3926 18.0586 13.1846 18.0186 13.001 17.9385C12.8193 17.8564 12.665 17.7432 12.5381 17.5986C12.4111 17.4521 12.3145 17.2812 12.248 17.0859C12.1816 16.8906 12.1484 16.6787 12.1484 16.4502ZM12.8545 16.3828V16.4502C12.8545 16.5928 12.8691 16.7275 12.8984 16.8545C12.9277 16.9814 12.9736 17.0928 13.0361 17.1885C13.0986 17.2842 13.1787 17.3594 13.2764 17.4141C13.374 17.4688 13.4902 17.4961 13.625 17.4961C13.7559 17.4961 13.8691 17.4688 13.9648 17.4141C14.0625 17.3594 14.1426 17.2842 14.2051 17.1885C14.2676 17.0928 14.3135 16.9814 14.3428 16.8545C14.374 16.7275 14.3896 16.5928 14.3896 16.4502V16.3828C14.3896 16.2422 14.374 16.1094 14.3428 15.9844C14.3135 15.8574 14.2666 15.7451 14.2021 15.6475C14.1396 15.5498 14.0596 15.4736 13.9619 15.4189C13.8662 15.3623 13.752 15.334 13.6191 15.334C13.4863 15.334 13.3711 15.3623 13.2734 15.4189C13.1777 15.4736 13.0986 15.5498 13.0361 15.6475C12.9736 15.7451 12.9277 15.8574 12.8984 15.9844C12.8691 16.1094 12.8545 16.2422 12.8545 16.3828ZM16.9824 17.4961C17.0977 17.4961 17.2012 17.4736 17.293 17.4287C17.3867 17.3818 17.4619 17.3174 17.5186 17.2354C17.5771 17.1533 17.6094 17.0586 17.6152 16.9512H18.2803C18.2764 17.1562 18.2158 17.3428 18.0986 17.5107C17.9814 17.6787 17.8262 17.8125 17.6328 17.9121C17.4395 18.0098 17.2256 18.0586 16.9912 18.0586C16.749 18.0586 16.5381 18.0176 16.3584 17.9355C16.1787 17.8516 16.0293 17.7363 15.9102 17.5898C15.791 17.4434 15.7012 17.2744 15.6406 17.083C15.582 16.8916 15.5527 16.6865 15.5527 16.4678V16.3652C15.5527 16.1465 15.582 15.9414 15.6406 15.75C15.7012 15.5566 15.791 15.3867 15.9102 15.2402C16.0293 15.0938 16.1787 14.9795 16.3584 14.8975C16.5381 14.8135 16.748 14.7715 16.9883 14.7715C17.2422 14.7715 17.4648 14.8223 17.6562 14.9238C17.8477 15.0234 17.998 15.1631 18.1074 15.3428C18.2188 15.5205 18.2764 15.7275 18.2803 15.9639H17.6152C17.6094 15.8467 17.5801 15.7412 17.5273 15.6475C17.4766 15.5518 17.4043 15.4756 17.3105 15.4189C17.2188 15.3623 17.1084 15.334 16.9795 15.334C16.8369 15.334 16.7188 15.3633 16.625 15.4219C16.5312 15.4785 16.458 15.5566 16.4053 15.6562C16.3525 15.7539 16.3145 15.8643 16.291 15.9873C16.2695 16.1084 16.2588 16.2344 16.2588 16.3652V16.4678C16.2588 16.5986 16.2695 16.7256 16.291 16.8486C16.3125 16.9717 16.3496 17.082 16.4023 17.1797C16.457 17.2754 16.5312 17.3525 16.625 17.4111C16.7188 17.4678 16.8379 17.4961 16.9824 17.4961Z" fill="#3E00FF"/>
</svg>
