<svg width="19" height="19" viewBox="0 0 19 19" fill="none" xmlns="http://www.w3.org/2000/svg">
<path fill-rule="evenodd" clip-rule="evenodd" d="M3.07554 4.08456C2.56873 4.56147 2.23232 5.33208 2.24033 6.53734L2.27526 11.7872C2.28328 12.9924 2.62992 13.7585 3.14302 14.2287C3.66372 14.7058 4.44514 14.9604 5.48389 14.9535L12.9837 14.9036C14.0225 14.8966 14.8004 14.6317 15.3148 14.1477C15.8215 13.6708 16.158 12.9001 16.15 11.6949L16.115 6.44504C16.107 5.23978 15.7604 4.47372 15.2473 4.00358C14.7265 3.52649 13.9451 3.2719 12.9064 3.27881L5.40656 3.32871C4.36781 3.33562 3.58984 3.60058 3.07554 4.08456ZM2.30456 3.26527C3.09463 2.52179 4.18787 2.21179 5.39907 2.20373L12.8989 2.15384C14.1101 2.14578 15.2074 2.44121 16.0072 3.17411C16.8148 3.91397 17.2306 5.01787 17.24 6.43756L17.2749 11.6874C17.2844 13.1072 16.8833 14.2165 16.0857 14.967C15.2957 15.7105 14.2024 16.0205 12.9912 16.0285L5.49138 16.0784C4.28018 16.0865 3.1829 15.7911 2.38302 15.0582C1.57555 14.3183 1.15973 13.2144 1.15028 11.7947L1.11536 6.54483C1.10591 5.12515 1.50701 4.0158 2.30456 3.26527Z" fill="#3E00FF"/>
<path fill-rule="evenodd" clip-rule="evenodd" d="M14.6942 5.56218C14.8858 5.80673 14.8429 6.16029 14.5984 6.35186L10.4595 9.59419C9.72055 10.173 8.684 10.1799 7.9374 9.61097L3.75581 6.424C3.50873 6.23569 3.46108 5.88273 3.6494 5.63566C3.83771 5.38857 4.19066 5.34093 4.43774 5.52924L8.61929 8.71617C8.95867 8.97484 9.42988 8.97171 9.76571 8.70854L13.9046 5.46626C14.1491 5.27468 14.5027 5.31762 14.6942 5.56218Z" fill="#F68932"/>
</svg>
