<svg width="192" height="71" viewBox="0 0 192 71" fill="none" xmlns="http://www.w3.org/2000/svg">
<path d="M38.7487 12.2084L32.8715 41.8936H23.3926L19.7349 17.8349H18.9577L15.352 41.8936H5.87721L0 12.2084H5.43251L10.2 36.2671H10.7528L14.4106 12.2084H24.3341L27.9918 36.2671H28.5447L33.3122 12.2084H38.7487Z" fill="#3E00FF"/>
<path d="M55.3796 22.9814V17.8955H40.4121V12.2084H60.5918V36.2671H64.3056V41.8936H56.1007L55.5478 38.7235H55.3796C54.9349 39.6015 54.0495 40.3583 52.7194 40.9984C51.3893 41.6384 49.7267 41.9541 47.7316 41.9541C44.4785 41.9541 41.9826 41.0286 40.2479 39.1733C38.5092 37.318 37.6438 34.9523 37.6438 32.0807C37.6438 29.209 38.6774 26.8261 40.7487 25.2865C42.8199 23.7512 45.5923 22.9814 49.0657 22.9814H55.3836H55.3796ZM55.3796 28.0673H49.8349C48.653 28.0673 47.6355 28.2057 46.7861 28.4868C45.9368 28.7679 45.2437 29.1139 44.7069 29.5334C44.17 29.9529 43.7814 30.433 43.541 30.9692C43.3007 31.5098 43.1805 32.0374 43.1805 32.5564C43.1805 33.5944 43.4849 34.4507 44.0939 35.1297C44.7029 35.8086 45.3959 36.2671 46.1732 36.5049C46.9504 36.7428 47.7076 36.8639 48.4447 36.8639C48.7011 36.8639 49.1739 36.8336 49.8589 36.7731C50.544 36.7125 51.3292 36.453 52.2146 35.9946C53.1 35.5362 53.8492 34.8875 54.4581 34.0485C55.0671 33.2095 55.3716 32.2148 55.3716 31.0557V28.063L55.3796 28.0673Z" fill="#3E00FF"/>
<path d="M69.3483 20.8835C69.4204 21.6404 69.8491 22.2415 70.6223 22.6783C71.3995 23.1194 72.3691 23.5087 73.5349 23.846C74.7007 24.1833 75.9467 24.5466 77.2767 24.9229C78.6068 25.3034 79.8448 25.8311 80.9906 26.51C82.1364 27.189 83.0858 28.0756 83.847 29.1741C84.6042 30.2726 84.9848 31.6998 84.9848 33.4513C84.9848 34.5282 84.7925 35.5877 84.4039 36.6213C84.0153 37.6593 83.3983 38.5891 82.545 39.4022C81.6957 40.2195 80.5939 40.8899 79.2478 41.4089C77.8977 41.9278 76.2832 42.1873 74.3962 42.1873C72.8819 42.1873 71.4677 41.9365 70.1536 41.4391C68.8435 40.9418 67.6857 40.2412 66.6882 39.3459C65.6906 38.4464 64.8853 37.3911 64.2764 36.1759C63.6674 34.9606 63.3069 33.6329 63.1947 32.1971H68.9036C69.0158 32.7939 69.1881 33.3951 69.4285 33.9919C69.6688 34.5887 70.0174 35.1293 70.4821 35.6093C70.9468 36.0894 71.5277 36.47 72.2288 36.7468C72.9299 37.0279 73.7833 37.1663 74.7808 37.1663C75.9987 37.1663 76.9522 37.0149 77.6373 36.7165C78.3224 36.4181 78.8272 36.0678 79.1637 35.6699C79.4962 35.272 79.7005 34.9044 79.7727 34.5628C79.8448 34.2254 79.8848 34.0135 79.8848 33.9357V33.5767C79.8848 32.4609 79.5323 31.5916 78.8312 30.9732C78.1301 30.3548 77.1966 29.8574 76.0308 29.4768C74.865 29.0963 73.599 28.7805 72.2328 28.5211C70.8667 28.2616 69.5887 27.855 68.4069 27.2928C67.225 26.7349 66.2355 25.9348 65.4422 24.8969C64.645 23.859 64.2523 22.4231 64.2523 20.5894C64.2523 19.5126 64.4286 18.4746 64.7772 17.4799C65.1297 16.4809 65.6826 15.5857 66.4398 14.7856C67.197 13.9899 68.1665 13.3498 69.3523 12.8697C70.5342 12.3897 71.9564 12.1518 73.619 12.1518C74.9852 12.1518 76.2992 12.3335 77.5532 12.6924C78.8111 13.0514 79.9169 13.6006 80.8784 14.3402C81.8399 15.0797 82.6051 16.0138 83.178 17.1513C83.7509 18.2887 84.0393 19.6164 84.0393 21.13H78.4947C78.4185 20.65 78.2903 20.1829 78.106 19.7245C77.9218 19.2661 77.6533 18.8552 77.3008 18.4963C76.9482 18.1373 76.4875 17.8389 75.9146 17.5967C75.3417 17.3588 74.6286 17.2161 73.7793 17.1772H73.3907C72.6134 17.1772 71.9484 17.2983 71.3955 17.5362C70.8427 17.774 70.406 18.094 70.0935 18.4919C69.781 18.8898 69.5767 19.279 69.4845 19.6596C69.3924 20.0402 69.3483 20.3689 69.3483 20.6457V20.8835Z" fill="#3E00FF"/>
<path d="M98.5621 12.3853C100.966 12.3853 103.005 12.8264 104.688 13.7C106.37 14.578 107.716 15.8062 108.734 17.3804C109.752 18.9589 110.425 20.6499 110.757 22.4663C111.09 24.2827 111.258 25.9867 111.258 27.5825C111.258 28.3826 111.222 29.1784 111.146 29.9784H90.8019C90.8019 31.3753 91.0063 32.5127 91.4109 33.3907C91.8155 34.2686 92.3724 34.9476 93.0735 35.4276C93.7746 35.9077 94.5718 36.2364 95.4572 36.4137C96.3426 36.5953 97.2881 36.6818 98.2857 36.6818C98.9868 36.6818 99.7079 36.6515 100.449 36.591C101.19 36.5305 101.871 36.3921 102.5 36.1715C103.129 35.9509 103.69 35.6223 104.191 35.1855C104.692 34.7487 105.032 34.1475 105.217 33.3907H110.537C110.168 34.9865 109.603 36.3315 108.846 37.43C108.089 38.5285 107.184 39.4151 106.13 40.0941C105.076 40.773 103.894 41.2704 102.58 41.5904C101.266 41.9105 99.8722 42.0705 98.3938 42.0705C93.9228 42.0705 90.6617 40.812 88.6105 38.2993C86.5593 35.7866 85.5337 32.0976 85.5337 27.2279C85.5337 25.0742 85.8021 23.0891 86.339 21.2727C86.8718 19.4563 87.677 17.8907 88.7507 16.576C89.8204 15.2613 91.1705 14.232 92.7971 13.4924C94.4236 12.7529 96.3466 12.3853 98.5621 12.3853ZM105.99 24.7152C105.954 24.2352 105.862 23.5908 105.713 22.7691C105.565 21.9517 105.241 21.1516 104.744 20.3731C104.243 19.5947 103.514 18.9287 102.552 18.3664C101.591 17.8086 100.281 17.5274 98.6182 17.5274C97.1038 17.5274 95.8458 17.7653 94.8483 18.2454C93.8507 18.7254 93.0455 19.3222 92.4365 20.0401C91.8275 20.758 91.4029 21.5365 91.1625 22.3755C90.9221 23.2145 90.8019 23.993 90.8019 24.7109H105.99V24.7152Z" fill="#3E00FF"/>
<path d="M124.84 12.3853C127.243 12.3853 129.283 12.8264 130.965 13.7C132.648 14.578 133.994 15.8062 135.012 17.3804C136.029 18.9589 136.702 20.6499 137.035 22.4663C137.367 24.2827 137.536 25.9867 137.536 27.5825C137.536 28.3826 137.5 29.1784 137.423 29.9784H117.08C117.08 31.3753 117.284 32.5127 117.688 33.3907C118.093 34.2686 118.65 34.9476 119.351 35.4276C120.052 35.9077 120.849 36.2364 121.735 36.4137C122.62 36.5953 123.566 36.6818 124.563 36.6818C125.264 36.6818 125.985 36.6515 126.727 36.591C127.468 36.5305 128.149 36.3921 128.778 36.1715C129.407 35.9509 129.968 35.6223 130.469 35.1855C130.969 34.7487 131.31 34.1475 131.494 33.3907H136.814C136.446 34.9865 135.881 36.3315 135.124 37.43C134.367 38.5285 133.461 39.4151 132.408 40.0941C131.354 40.773 130.172 41.2704 128.858 41.5904C127.548 41.9105 126.15 42.0705 124.671 42.0705C120.2 42.0705 116.939 40.812 114.888 38.2993C112.837 35.7866 111.811 32.0976 111.811 27.2279C111.811 25.0742 112.08 23.0891 112.617 21.2727C113.149 19.4563 113.955 17.8907 115.028 16.576C116.098 15.2613 117.448 14.232 119.075 13.4924C120.701 12.7529 122.624 12.3853 124.84 12.3853ZM132.267 24.7152C132.231 24.2352 132.139 23.5908 131.991 22.7691C131.843 21.9517 131.518 21.1516 131.021 20.3731C130.521 19.5947 129.791 18.9287 128.83 18.3664C127.868 17.8086 126.558 17.5274 124.896 17.5274C123.381 17.5274 122.123 17.7653 121.126 18.2454C120.128 18.7254 119.323 19.3222 118.714 20.0401C118.105 20.758 117.68 21.5365 117.44 22.3755C117.2 23.2145 117.08 23.993 117.08 24.7109H132.267V24.7152Z" fill="#3E00FF"/>
<path d="M139.198 0H144.41V41.894H139.198V0Z" fill="#3E00FF"/>
<path d="M162.146 22.9814V17.8955H147.178V12.2084H167.358V36.2671H171.072V41.8936H162.867L162.314 38.7235H162.146C161.701 39.6015 160.816 40.3583 159.486 40.9984C158.156 41.6384 156.493 41.9541 154.498 41.9541C151.245 41.9541 148.749 41.0286 147.014 39.1733C145.275 37.318 144.41 34.9523 144.41 32.0807C144.41 29.209 145.444 26.8261 147.515 25.2865C149.586 23.7512 152.358 22.9814 155.832 22.9814H162.15H162.146ZM162.146 28.0673H156.601C155.419 28.0673 154.402 28.2057 153.552 28.4868C152.703 28.7679 152.01 29.1139 151.473 29.5334C150.936 29.9529 150.548 30.433 150.307 30.9692C150.067 31.5098 149.947 32.0374 149.947 32.5564C149.947 33.5944 150.251 34.4507 150.86 35.1297C151.469 35.8086 152.162 36.2671 152.939 36.5049C153.717 36.7428 154.474 36.8639 155.211 36.8639C155.467 36.8639 155.94 36.8336 156.625 36.7731C157.31 36.7125 158.095 36.453 158.981 35.9946C159.866 35.5362 160.615 34.8875 161.224 34.0485C161.833 33.2095 162.138 32.2148 162.138 31.0557V28.063L162.146 28.0673Z" fill="#3E00FF"/>
<path d="M183.191 25.6797H183.571L183.985 25.7046L184.41 25.7545L184.78 25.8169L185.183 25.9167L185.597 26.0415L185.988 26.1913L186.268 26.316L186.548 26.4533L186.738 26.5531L186.984 26.7029L187.297 26.9025L187.6 27.1271L187.745 27.2394L187.924 27.3892L188.081 27.5264L188.237 27.6761L188.36 27.7884L188.439 27.8758L188.528 27.9631L188.83 28.3L188.909 28.3999L189.032 28.5496L189.133 28.6869L189.267 28.874L189.424 29.1111L189.558 29.3232L189.681 29.5354L189.782 29.7225L189.871 29.8972L189.983 30.1218L190.117 30.4213L190.218 30.6709L190.341 31.0078L190.487 31.4819L190.598 31.9311L190.666 32.268L190.733 32.6673L190.789 33.1914L190.811 33.5533V34.3394L190.778 34.8011L190.722 35.2877L190.621 35.8492L190.498 36.3483L190.363 36.7976L190.24 37.1469L190.106 37.4714L190.017 37.671L189.871 37.983H189.838V37.958L189.793 37.9331L189.659 37.7958L189.535 37.6835L189.379 37.5213L189.256 37.409L189.133 37.2842L189.01 37.1719L188.864 37.0222L188.741 36.9099L188.584 36.7476L188.461 36.6353L188.316 36.4856L188.193 36.3733L188.058 36.236L187.969 36.1487L187.812 35.999L187.7 35.8867L187.577 35.7744L187.443 35.6371L187.353 35.5498L187.208 35.4125L187.085 35.2877L186.973 35.1879L186.872 35.2253L186.604 35.3127L186.402 35.3501H186.134L185.955 35.3127L185.843 35.2503L185.742 35.138L185.675 35.0132L185.641 34.8759L185.63 34.8011V34.7013L185.641 34.6389L185.473 34.6763L185.35 34.6888H185.238L185.082 34.6638L184.948 34.6139L184.813 34.5266L184.735 34.4392L184.657 34.302L184.612 34.2021L184.578 34.0774L184.567 33.99V33.8028L184.589 33.6406L184.601 33.5907L184.489 33.5782L184.321 33.5158L184.209 33.441L184.108 33.3412L184.03 33.2039L183.996 33.0916L183.985 32.9169L184.008 32.7048L184.064 32.4802L183.996 32.4552L183.884 32.3803L183.773 32.268L183.672 32.0934L183.627 31.9436L183.616 31.8812V31.744L183.65 31.5568L183.773 31.2698L183.907 31.0577L184.008 30.9204L184.108 30.7956L184.131 30.7457L183.94 30.596L183.817 30.5086L183.482 30.2591L182.989 29.8972L182.62 29.6227L182.374 29.448L182.116 29.3108L181.714 29.1236L181.512 29.0737H181.322L181.165 29.1111L180.997 29.2109L180.886 29.3232L180.796 29.4605L180.74 29.5853L180.707 29.76V29.9971L180.751 30.2466L180.818 30.4463L180.874 30.5461L180.986 30.6584L181.177 30.8081L181.356 30.9204L181.512 31.0078L181.49 31.0202L181.277 30.9329L181.031 30.7956L180.841 30.6459L180.785 30.6085H180.684L180.516 30.6459L180.371 30.7083L180.259 30.7832L180.158 30.883L180.058 31.0577L180.002 31.2449L179.968 31.457V31.7065L180.013 31.8937L180.091 32.031L180.192 32.1433L180.36 32.2805L180.516 32.3803L180.651 32.4552L180.606 32.4677L180.393 32.3679L180.214 32.2556L180.125 32.1807L180.08 32.1682L179.979 32.2431L179.912 32.3055L179.811 32.4802L179.767 32.6299L179.755 32.7048V32.9793L179.811 33.2413L179.89 33.441L179.979 33.5658L180.08 33.6905L180.225 33.8278L180.337 33.9151L180.304 33.9276L180.125 33.8278L180.002 33.7404L179.845 33.6032L179.8 33.5533H179.767L179.655 33.8403L179.621 34.0025L179.61 34.1023V34.252L179.644 34.4642L179.699 34.6264L179.767 34.7636L179.878 34.9259L180.002 35.0756L180.136 35.2128L180.293 35.3751L180.449 35.5123L180.628 35.6621L180.93 35.8867L181.098 35.999L181.389 36.1861L181.758 36.3983L182.139 36.5979L182.564 36.7976L182.889 36.9348L183.135 37.0346L183.426 37.122L183.884 37.2218L184.019 37.4963L184.153 37.7334L184.332 38.0329L184.489 38.2824L184.634 38.507L184.97 38.9937L185.093 39.1684L185.194 39.3056L185.317 39.4803L185.451 39.655L185.552 39.7923L185.675 39.9545L186.078 40.4786L186.212 40.6408L186.29 40.7406L186.391 40.8654L186.525 41.0401L186.693 41.2397L186.738 41.2896L186.727 41.3271L186.413 41.4893L186.111 41.6265L185.843 41.7388L185.462 41.8761L184.97 42.0134L184.556 42.1007L184.075 42.1631L183.761 42.188H183.068L182.631 42.1506L182.206 42.0882L181.803 42.0009L181.4 41.8886L180.908 41.7139L180.796 41.664L180.785 41.6265L180.93 41.3395L181.087 41.0276L181.244 40.7281L181.367 40.4786L181.501 40.2165L181.658 39.9046L182.094 39.0436L182.273 38.6942L182.441 38.3573L182.586 38.0703L182.698 37.8457L182.766 37.7334L182.911 37.6211L183.112 37.4589L183.28 37.3341L183.291 37.3092L183.101 37.2592L182.788 37.1345L182.363 36.9473L182.005 36.7726L181.758 36.6478L181.579 36.548L181.277 36.3733L181.009 36.1986L180.818 36.0738L180.651 35.9491L180.46 35.7993L180.315 35.6745L180.136 35.5123L180.002 35.3751L179.923 35.3002L179.89 35.2877L179.823 35.5622L179.8 35.7619L179.677 35.9241L179.543 36.0988L179.442 36.236L179.308 36.4107L179.207 36.548L179.062 36.7352L178.939 36.8974L178.838 37.0346L178.704 37.2093L178.603 37.3466L178.457 37.5338L178.357 37.671L178.211 37.8582L178.11 37.9954L177.965 38.1826L177.864 38.3199L177.719 38.507L177.618 38.6443L177.506 38.794L177.473 38.8439H177.45L177.327 38.6443L177.193 38.4197L177.047 38.1577L176.913 37.8956L176.757 37.5587L176.611 37.2093L176.488 36.8724L176.342 36.4107L176.219 35.9116L176.13 35.4499L176.074 35.0506L176.029 34.5765L176.007 34.1148V33.7155L176.029 33.2912L176.063 32.9169L176.119 32.4926L176.219 31.9561L176.331 31.5069L176.477 31.0327L176.6 30.6958L176.701 30.4463L176.801 30.2092L176.936 29.9347L177.036 29.735L177.215 29.4106L177.294 29.2858L177.428 29.0737L177.573 28.8616L177.696 28.6869L177.797 28.5621L177.898 28.4248L178.077 28.2127L178.39 27.8633L178.513 27.751L178.592 27.6637L178.748 27.5264L178.883 27.4016L179.095 27.2269L179.285 27.0772L179.565 26.8776L179.878 26.6779L180.136 26.5282L180.393 26.3909L180.74 26.2287L181.121 26.079L181.456 25.9667L181.77 25.8793L182.24 25.7795L182.687 25.7171L182.956 25.6921L183.191 25.6797Z" fill="#F68932"/>
<path d="M186.546 29.2387H186.636L186.77 29.2761L186.86 29.326L186.983 29.4383L187.072 29.5756L187.128 29.7128L187.162 29.8501L187.173 29.9624V30.0996L187.14 30.3367L187.106 30.4366L187.005 30.5613L186.815 30.7235L186.647 30.8483L186.412 31.0105L186.233 31.1228L185.976 31.2601L185.685 31.3974L185.495 31.4722L185.629 31.4348L185.897 31.335L186.2 31.1977L186.435 31.0729L186.681 30.9232L186.938 30.7485L187.117 30.6112L187.151 30.5863L187.263 30.5988L187.442 30.6612L187.598 30.7485L187.699 30.8358L187.789 30.9357L187.867 31.0854L187.912 31.2726V31.5471L187.867 31.7592L187.833 31.8341L187.609 31.9838L187.386 32.1211L187.117 32.2583L186.815 32.3831L186.546 32.4705L186.211 32.5453L186.502 32.5079L186.77 32.4455L187.106 32.3332L187.475 32.171L187.844 31.9713L187.878 31.9838L187.968 32.1959L188.012 32.3457L188.024 32.4206V32.6826L188.001 32.7949L187.956 32.8573L187.755 33.0195L187.509 33.1942L187.307 33.319L187.14 33.4063L187.207 33.3938L187.43 33.294L187.721 33.1318L187.979 32.9696L188.024 32.9571L188.113 33.032L188.214 33.1692L188.259 33.3314L188.27 33.5436L188.247 33.7183L188.203 33.8555L188.147 33.9678L188.057 34.0302L187.766 34.155L187.531 34.2174L187.453 34.2299H187.195L187.061 34.1924L186.983 34.1425L186.916 34.0302L186.882 33.893V33.7931L186.905 33.6684L186.96 33.5061L186.994 33.4188L186.893 33.4437L186.625 33.5311L186.412 33.5685H186.289L186.121 33.5311L185.998 33.4562L185.909 33.3439L185.853 33.2316L185.819 33.0444V32.9197L185.853 32.7075L185.92 32.5204L185.931 32.4829H185.696L185.528 32.4455L185.394 32.3706L185.293 32.2708L185.248 32.1585L185.237 32.0961V31.9589L185.282 31.7343L185.349 31.5346L185.394 31.4348L185.293 31.4223L185.148 31.3599L185.047 31.2851L184.98 31.2227L184.913 31.1104L184.868 30.9606V30.8234L184.913 30.6612L185.025 30.4241L185.159 30.2244L185.282 30.0747L185.338 30.0123L185.629 29.8127L186.076 29.5132L186.323 29.351L186.491 29.2511L186.546 29.2387Z" fill="#F68932"/>
<path d="M184.185 28.3289H184.655L184.912 28.3663L185.181 28.4287L185.304 28.4662L185.707 28.4287H186.155L186.367 28.4537L186.546 28.5161L186.647 28.5909L186.703 28.6908V28.7906L186.647 28.9403L186.569 29.0651L186.378 29.2148L186.199 29.3396L186.054 29.4394L185.908 29.5143L185.729 29.5642L185.562 29.5892H185.226L185.136 29.5393L184.655 29.1774L184.498 29.0651L184.028 28.7157L183.849 28.5909L183.682 28.4662L183.648 28.4287L183.704 28.4038L184.062 28.3414L184.185 28.3289Z" fill="#F68932"/>
<path d="M191.927 34.0929C191.927 39.0479 188.18 43.0648 183.558 43.0648C178.936 43.0648 175.189 39.0479 175.189 34.0929C175.189 29.1378 178.936 25.1209 183.558 25.1209C188.18 25.1209 191.927 29.1378 191.927 34.0929Z" fill="#F68932"/>
<path d="M7.60656 49.1699C8.63923 49.1699 9.54178 49.28 10.3142 49.5004C11.0866 49.7208 11.7079 49.9534 12.178 50.1983C12.6482 50.4432 12.9337 50.6064 13.0344 50.688L11.2209 53.6387C11.0866 53.5408 10.8557 53.3979 10.5283 53.2102C10.2092 53.0225 9.82723 52.8551 9.38226 52.7082C8.94568 52.5613 8.48811 52.4878 8.00955 52.4878C7.36308 52.4878 6.83834 52.6021 6.43535 52.8307C6.04075 53.051 5.84345 53.3816 5.84345 53.8224C5.84345 54.1244 5.94839 54.3978 6.15829 54.6427C6.37658 54.8794 6.70401 55.1079 7.14059 55.3283C7.58557 55.5406 8.14808 55.7732 8.82814 56.0262C9.44942 56.2466 10.0329 56.5078 10.5787 56.8098C11.1244 57.1118 11.6029 57.4709 12.0143 57.8872C12.4341 58.2953 12.7657 58.7687 13.0092 59.3075C13.2527 59.8462 13.3744 60.4584 13.3744 61.144C13.3744 61.9602 13.2023 62.6703 12.8581 63.2744C12.5139 63.8702 12.0437 64.364 11.4476 64.7558C10.8599 65.1476 10.1883 65.4374 9.43263 65.6251C8.68541 65.821 7.9088 65.919 7.10281 65.919C5.96099 65.919 4.9367 65.7924 4.02996 65.5394C3.13162 65.2864 2.40538 65.0129 1.85126 64.7191C1.29714 64.4252 0.965512 64.2293 0.856367 64.1314L2.73282 61.0583C2.83357 61.1317 3.02667 61.2501 3.31213 61.4133C3.60598 61.5766 3.9628 61.748 4.38259 61.9276C4.80237 62.099 5.24735 62.2459 5.71751 62.3683C6.19607 62.4908 6.66623 62.552 7.128 62.552C7.90041 62.552 8.47971 62.4091 8.86592 62.1235C9.25212 61.8296 9.44523 61.446 9.44523 60.9726C9.44523 60.6216 9.32349 60.3074 9.08001 60.0298C8.83653 59.7523 8.47132 59.4911 7.98436 59.2462C7.49741 58.9932 6.88872 58.7279 6.15829 58.4504C5.42786 58.1647 4.7436 57.8178 4.10553 57.4097C3.47584 57.0016 2.9637 56.4915 2.5691 55.8793C2.1745 55.2671 1.9772 54.508 1.9772 53.602C1.9772 52.696 2.23747 51.9124 2.75801 51.2513C3.28694 50.5819 3.97959 50.0677 4.83596 49.7086C5.70072 49.3494 6.62425 49.1699 7.60656 49.1699Z" fill="#F68932"/>
<path d="M15.7816 65.6251V55.5732H19.6101V65.6251H15.7816ZM17.7462 53.5041C17.1417 53.5041 16.6296 53.3 16.2098 52.8919C15.79 52.4756 15.5801 51.9818 15.5801 51.4104C15.5801 50.8391 15.79 50.3452 16.2098 49.929C16.638 49.5045 17.1501 49.2923 17.7462 49.2923C18.1408 49.2923 18.5018 49.3902 18.8293 49.5861C19.1567 49.7739 19.4212 50.0269 19.6227 50.3452C19.8242 50.6636 19.9249 51.0186 19.9249 51.4104C19.9249 51.9818 19.7108 52.4756 19.2826 52.8919C18.8544 53.3 18.3423 53.5041 17.7462 53.5041Z" fill="#F68932"/>
<path d="M27.6755 71C26.9535 71 26.2356 70.9388 25.522 70.8163C24.8167 70.6939 24.1577 70.4858 23.5448 70.1919C22.9319 69.8981 22.4156 69.494 21.9958 68.9798L24.2374 66.7148C24.4305 66.9352 24.6656 67.1515 24.9427 67.3637C25.2281 67.5759 25.5766 67.7514 25.9879 67.8902C26.4077 68.0289 26.9157 68.0983 27.5118 68.0983C28.0659 68.0983 28.5487 68.0044 28.96 67.8167C29.3714 67.629 29.6905 67.3555 29.9172 66.9964C30.1522 66.6372 30.2698 66.2005 30.2698 65.6863V65.4415H34.0353V65.9067C34.0353 67.0168 33.7498 67.9514 33.1789 68.7105C32.6164 69.4696 31.8566 70.0409 30.8995 70.4246C29.9424 70.8082 28.8677 71 27.6755 71ZM30.2698 65.6251V63.9967C30.1942 64.16 30.0011 64.3967 29.6905 64.7068C29.3882 65.017 28.9852 65.2986 28.4815 65.5517C27.9777 65.7965 27.39 65.919 26.7184 65.919C25.7109 65.919 24.8293 65.6822 24.0737 65.2088C23.3181 64.7272 22.7304 64.0865 22.3106 63.2866C21.8908 62.4785 21.6809 61.5848 21.6809 60.6053C21.6809 59.6258 21.8908 58.7361 22.3106 57.9362C22.7304 57.1281 23.3181 56.4833 24.0737 56.0017C24.8293 55.5201 25.7109 55.2794 26.7184 55.2794C27.3649 55.2794 27.9316 55.3814 28.4185 55.5854C28.9055 55.7813 29.3001 56.018 29.6023 56.2956C29.9046 56.5649 30.1145 56.8139 30.232 57.0424V55.5732H34.0353V65.6251H30.2698ZM25.4338 60.6053C25.4338 61.0624 25.543 61.4746 25.7613 61.8419C25.9796 62.201 26.2692 62.4826 26.6302 62.6867C26.9996 62.8907 27.4068 62.9928 27.8518 62.9928C28.3136 62.9928 28.7208 62.8907 29.0734 62.6867C29.426 62.4826 29.7031 62.201 29.9046 61.8419C30.1145 61.4746 30.2194 61.0624 30.2194 60.6053C30.2194 60.1482 30.1145 59.7401 29.9046 59.3809C29.7031 59.0136 29.426 58.7279 29.0734 58.5239C28.7208 58.3117 28.3136 58.2056 27.8518 58.2056C27.4068 58.2056 26.9996 58.3117 26.6302 58.5239C26.2692 58.7279 25.9796 59.0136 25.7613 59.3809C25.543 59.7401 25.4338 60.1482 25.4338 60.6053Z" fill="#F68932"/>
<path d="M43.6047 55.2794C44.3267 55.2794 45.032 55.4222 45.7204 55.7079C46.4089 55.9936 46.9756 56.4466 47.4205 57.0669C47.8655 57.6791 48.088 58.4872 48.088 59.4911V65.6251H44.2469V60.1033C44.2469 59.385 44.0706 58.8463 43.718 58.4872C43.3654 58.1198 42.9036 57.9362 42.3327 57.9362C41.9549 57.9362 41.5981 58.0341 41.2623 58.23C40.9348 58.4178 40.6662 58.6871 40.4563 59.0381C40.2548 59.3809 40.154 59.7768 40.154 60.2257V65.6251H36.3256V55.5732H40.154V57.0547C40.2548 56.7853 40.4647 56.5159 40.7837 56.2466C41.1111 55.9691 41.5183 55.7405 42.0053 55.561C42.5006 55.3732 43.0338 55.2794 43.6047 55.2794Z" fill="#F68932"/>
<path d="M58.3349 65.6251V63.9967C58.2593 64.16 58.0662 64.3967 57.7556 64.7068C57.4533 65.017 57.0503 65.2986 56.5466 65.5517C56.0429 65.7965 55.4552 65.919 54.7835 65.919C53.776 65.919 52.8944 65.6822 52.1388 65.2088C51.3832 64.7272 50.7955 64.0865 50.3757 63.2866C49.9559 62.4785 49.746 61.5848 49.746 60.6053C49.746 59.6258 49.9559 58.7361 50.3757 57.9362C50.7955 57.1281 51.3832 56.4833 52.1388 56.0017C52.8944 55.5201 53.776 55.2794 54.7835 55.2794C55.43 55.2794 55.9967 55.3814 56.4836 55.5854C56.9706 55.7813 57.3652 56.018 57.6674 56.2956C57.9697 56.5649 58.1796 56.8139 58.2971 57.0424V55.5732H62.1004V65.6251H58.3349ZM53.4989 60.6053C53.4989 61.0624 53.6081 61.4746 53.8264 61.8419C54.0447 62.201 54.3343 62.4826 54.6953 62.6867C55.0648 62.8907 55.4719 62.9928 55.9169 62.9928C56.3787 62.9928 56.7859 62.8907 57.1385 62.6867C57.4911 62.4826 57.7682 62.201 57.9697 61.8419C58.1796 61.4746 58.2845 61.0624 58.2845 60.6053C58.2845 60.1482 58.1796 59.7401 57.9697 59.3809C57.7682 59.0136 57.4911 58.7279 57.1385 58.5239C56.7859 58.3117 56.3787 58.2056 55.9169 58.2056C55.4719 58.2056 55.0648 58.3117 54.6953 58.5239C54.3343 58.7279 54.0447 59.0136 53.8264 59.3809C53.6081 59.7401 53.4989 60.1482 53.4989 60.6053Z" fill="#F68932"/>
<path d="M63.6482 55.5732H65.4113V51.4471H69.202V55.5732H71.5193V58.6341H69.202V61.4378C69.202 61.8541 69.265 62.1928 69.3909 62.454C69.5169 62.7071 69.7477 62.8336 70.0836 62.8336C70.3103 62.8336 70.5034 62.7846 70.6629 62.6867C70.8224 62.5887 70.919 62.5234 70.9525 62.4908L72.2623 65.1354C72.2035 65.1843 72.0188 65.2741 71.7082 65.4047C71.4059 65.5353 71.0197 65.6537 70.5495 65.7598C70.0794 65.8659 69.5546 65.919 68.9753 65.919C67.9427 65.919 67.0905 65.6374 66.4188 65.0742C65.7472 64.5028 65.4113 63.6253 65.4113 62.4418V58.6341H63.6482V55.5732Z" fill="#F68932"/>
<path d="M77.3068 60.2257C77.3068 61.0256 77.4621 61.6664 77.7728 62.148C78.0834 62.6214 78.604 62.8581 79.3344 62.8581C80.0816 62.8581 80.6063 62.6214 80.9086 62.148C81.2192 61.6664 81.3746 61.0256 81.3746 60.2257V55.5732H85.1526V60.6175C85.1526 61.6949 84.9218 62.6336 84.46 63.4335C84.0066 64.2253 83.3476 64.8374 82.4828 65.27C81.618 65.7026 80.5686 65.919 79.3344 65.919C78.1086 65.919 77.0633 65.7026 76.1986 65.27C75.3338 64.8374 74.6747 64.2253 74.2214 63.4335C73.768 62.6336 73.5413 61.6949 73.5413 60.6175V55.5732H77.3068V60.2257Z" fill="#F68932"/>
<path d="M90.9798 65.6251H87.1513V55.5732H90.9798V57.1281H90.9168C90.984 56.9404 91.1477 56.7037 91.4079 56.418C91.6682 56.1242 92.0334 55.863 92.5036 55.6344C92.9738 55.3977 93.5489 55.2794 94.2289 55.2794C94.7075 55.2794 95.1483 55.3528 95.5512 55.4997C95.9542 55.6385 96.2481 55.7732 96.4328 55.9038L94.9468 58.9279C94.8292 58.7892 94.6193 58.6463 94.3171 58.4994C94.0232 58.3443 93.6538 58.2668 93.2088 58.2668C92.6967 58.2668 92.2727 58.3933 91.9369 58.6463C91.6094 58.8993 91.366 59.2054 91.2064 59.5646C91.0553 59.9237 90.9798 60.2625 90.9798 60.5808V65.6251Z" fill="#F68932"/>
<path d="M100.242 61.3889C100.267 61.748 100.385 62.0663 100.595 62.3439C100.805 62.6214 101.094 62.8418 101.464 63.005C101.842 63.1601 102.287 63.2376 102.799 63.2376C103.286 63.2376 103.722 63.1886 104.108 63.0907C104.503 62.9928 104.843 62.8703 105.129 62.7234C105.422 62.5765 105.649 62.4255 105.809 62.2704L107.295 64.5722C107.085 64.7925 106.787 65.0089 106.4 65.2211C106.023 65.4251 105.523 65.5925 104.902 65.7231C104.281 65.8537 103.496 65.919 102.547 65.919C101.405 65.919 100.389 65.7108 99.4992 65.2945C98.6092 64.8783 97.9082 64.2661 97.396 63.458C96.8839 62.6499 96.6278 61.6623 96.6278 60.4951C96.6278 59.5156 96.8461 58.6341 97.2827 57.8505C97.7276 57.0587 98.3699 56.4343 99.2095 55.9772C100.049 55.512 101.061 55.2794 102.245 55.2794C103.37 55.2794 104.344 55.4793 105.166 55.8793C105.997 56.2792 106.636 56.8751 107.081 57.6668C107.534 58.4504 107.761 59.4299 107.761 60.6053C107.761 60.6706 107.756 60.8012 107.748 60.9971C107.748 61.193 107.74 61.3236 107.723 61.3889H100.242ZM104.159 59.4421C104.15 59.181 104.079 58.9238 103.945 58.6708C103.81 58.4096 103.609 58.1974 103.34 58.0341C103.072 57.8627 102.727 57.777 102.308 57.777C101.888 57.777 101.531 57.8587 101.237 58.0219C100.952 58.177 100.733 58.381 100.582 58.6341C100.431 58.8871 100.347 59.1565 100.33 59.4421H104.159Z" fill="#F68932"/>
<path d="M120.446 49.1699C121.478 49.1699 122.381 49.28 123.153 49.5004C123.926 49.7208 124.547 49.9534 125.017 50.1983C125.487 50.4432 125.773 50.6064 125.873 50.688L124.06 53.6387C123.926 53.5408 123.695 53.3979 123.367 53.2102C123.048 53.0225 122.666 52.8551 122.221 52.7082C121.785 52.5613 121.327 52.4878 120.849 52.4878C120.202 52.4878 119.677 52.6021 119.274 52.8307C118.88 53.051 118.682 53.3816 118.682 53.8224C118.682 54.1244 118.787 54.3978 118.997 54.6427C119.216 54.8794 119.543 55.1079 119.98 55.3283C120.425 55.5406 120.987 55.7732 121.667 56.0262C122.288 56.2466 122.872 56.5078 123.418 56.8098C123.963 57.1118 124.442 57.4709 124.853 57.8872C125.273 58.2953 125.605 58.7687 125.848 59.3075C126.092 59.8462 126.213 60.4584 126.213 61.144C126.213 61.9602 126.041 62.6703 125.697 63.2744C125.353 63.8702 124.883 64.364 124.287 64.7558C123.699 65.1476 123.027 65.4374 122.272 65.6251C121.524 65.821 120.748 65.919 119.942 65.919C118.8 65.919 117.776 65.7924 116.869 65.5394C115.971 65.2864 115.244 65.0129 114.69 64.7191C114.136 64.4252 113.804 64.2293 113.695 64.1314L115.572 61.0583C115.673 61.1317 115.866 61.2501 116.151 61.4133C116.445 61.5766 116.802 61.748 117.222 61.9276C117.641 62.099 118.086 62.2459 118.556 62.3683C119.035 62.4908 119.505 62.552 119.967 62.552C120.739 62.552 121.319 62.4091 121.705 62.1235C122.091 61.8296 122.284 61.446 122.284 60.9726C122.284 60.6216 122.162 60.3074 121.919 60.0298C121.675 59.7523 121.31 59.4911 120.823 59.2462C120.336 58.9932 119.728 58.7279 118.997 58.4504C118.267 58.1647 117.583 57.8178 116.944 57.4097C116.315 57.0016 115.803 56.4915 115.408 55.8793C115.013 55.2671 114.816 54.508 114.816 53.602C114.816 52.696 115.076 51.9124 115.597 51.2513C116.126 50.5819 116.819 50.0677 117.675 49.7086C118.54 49.3494 119.463 49.1699 120.446 49.1699Z" fill="#3E00FF"/>
<path d="M133.708 62.4051L136.504 55.5732H140.257L133.154 70.7184H129.326L131.719 65.6251L127.399 55.5732H131.215L133.708 62.4051Z" fill="#3E00FF"/>
<path d="M146.092 55.2794C146.772 55.2794 147.393 55.3365 147.956 55.4508C148.518 55.5569 148.988 55.6793 149.366 55.8181C149.752 55.9568 150 56.0711 150.109 56.1609L148.862 58.3525C148.703 58.2382 148.405 58.0913 147.968 57.9117C147.54 57.7321 147.061 57.6423 146.532 57.6423C146.129 57.6423 145.789 57.7036 145.512 57.826C145.235 57.9403 145.097 58.1239 145.097 58.377C145.097 58.63 145.248 58.834 145.55 58.9891C145.861 59.1361 146.306 59.2667 146.885 59.3809C147.389 59.4789 147.901 59.634 148.421 59.8462C148.942 60.0584 149.374 60.3727 149.719 60.7889C150.071 61.197 150.248 61.7439 150.248 62.4296C150.248 63.1315 150.092 63.711 149.782 64.1681C149.471 64.6252 149.06 64.9803 148.547 65.2333C148.035 65.4863 147.481 65.6618 146.885 65.7598C146.289 65.8659 145.71 65.919 145.147 65.919C144.358 65.919 143.669 65.8496 143.082 65.7108C142.502 65.5721 142.032 65.4129 141.671 65.2333C141.31 65.0537 141.058 64.9109 140.916 64.8048L142.15 62.3561C142.368 62.5357 142.725 62.7397 143.22 62.9683C143.716 63.1886 144.24 63.2988 144.795 63.2988C145.332 63.2988 145.747 63.2213 146.041 63.0662C146.335 62.9111 146.482 62.7071 146.482 62.454C146.482 62.25 146.411 62.0867 146.268 61.9643C146.125 61.8419 145.924 61.7358 145.663 61.646C145.403 61.5562 145.088 61.4746 144.719 61.4011C144.383 61.3358 144.026 61.2338 143.649 61.095C143.271 60.9563 142.914 60.7685 142.578 60.5318C142.242 60.2869 141.969 59.9809 141.759 59.6136C141.55 59.2462 141.445 58.8014 141.445 58.279C141.445 57.6097 141.667 57.0547 142.112 56.6139C142.557 56.1731 143.132 55.8426 143.837 55.6222C144.543 55.3936 145.294 55.2794 146.092 55.2794Z" fill="#3E00FF"/>
<path d="M151.226 55.5732H152.989V51.4471H156.78V55.5732H159.097V58.6341H156.78V61.4378C156.78 61.8541 156.843 62.1928 156.969 62.454C157.095 62.7071 157.326 62.8336 157.661 62.8336C157.888 62.8336 158.081 62.7846 158.241 62.6867C158.4 62.5887 158.497 62.5234 158.53 62.4908L159.84 65.1354C159.781 65.1843 159.597 65.2741 159.286 65.4047C158.984 65.5353 158.598 65.6537 158.127 65.7598C157.657 65.8659 157.133 65.919 156.553 65.919C155.521 65.919 154.668 65.6374 153.997 65.0742C153.325 64.5028 152.989 63.6253 152.989 62.4418V58.6341H151.226V55.5732Z" fill="#3E00FF"/>
<path d="M164.305 61.3889C164.331 61.748 164.448 62.0663 164.658 62.3439C164.868 62.6214 165.158 62.8418 165.527 63.005C165.905 63.1601 166.35 63.2376 166.862 63.2376C167.349 63.2376 167.785 63.1886 168.172 63.0907C168.566 62.9928 168.906 62.8703 169.192 62.7234C169.486 62.5765 169.712 62.4255 169.872 62.2704L171.358 64.5722C171.148 64.7925 170.85 65.0089 170.464 65.2211C170.086 65.4251 169.586 65.5925 168.965 65.7231C168.344 65.8537 167.559 65.919 166.61 65.919C165.468 65.919 164.452 65.7108 163.562 65.2945C162.672 64.8783 161.971 64.2661 161.459 63.458C160.947 62.6499 160.691 61.6623 160.691 60.4951C160.691 59.5156 160.909 58.6341 161.346 57.8505C161.791 57.0587 162.433 56.4343 163.273 55.9772C164.112 55.512 165.124 55.2794 166.308 55.2794C167.433 55.2794 168.407 55.4793 169.23 55.8793C170.061 56.2792 170.699 56.8751 171.144 57.6668C171.597 58.4504 171.824 59.4299 171.824 60.6053C171.824 60.6706 171.82 60.8012 171.811 60.9971C171.811 61.193 171.803 61.3236 171.786 61.3889H164.305ZM168.222 59.4421C168.214 59.181 168.142 58.9238 168.008 58.6708C167.874 58.4096 167.672 58.1974 167.403 58.0341C167.135 57.8627 166.791 57.777 166.371 57.777C165.951 57.777 165.594 57.8587 165.3 58.0219C165.015 58.177 164.797 58.381 164.645 58.6341C164.494 58.8871 164.41 59.1565 164.394 59.4421H168.222Z" fill="#3E00FF"/>
<path d="M188.02 55.2794C188.801 55.2794 189.49 55.4385 190.086 55.7569C190.682 56.067 191.148 56.5486 191.484 57.2016C191.828 57.8546 192 58.6953 192 59.7237V65.6251H188.234V60.2869C188.234 59.585 188.125 59.0177 187.907 58.5851C187.689 58.1525 187.256 57.9362 186.61 57.9362C186.224 57.9362 185.884 58.0341 185.59 58.23C185.296 58.4259 185.069 58.6994 184.91 59.0504C184.75 59.3932 184.67 59.8054 184.67 60.2869V65.6251H181.157V60.2869C181.157 59.585 181.035 59.0177 180.792 58.5851C180.557 58.1525 180.137 57.9362 179.532 57.9362C179.146 57.9362 178.806 58.0341 178.512 58.23C178.218 58.4178 177.992 58.6871 177.832 59.0381C177.681 59.3809 177.605 59.7972 177.605 60.2869V65.6251H173.802V55.5732H177.605V57.0057C177.706 56.7527 177.925 56.4955 178.26 56.2343C178.605 55.965 179.029 55.7405 179.532 55.561C180.036 55.3732 180.569 55.2794 181.132 55.2794C181.745 55.2794 182.257 55.3691 182.668 55.5487C183.08 55.7201 183.415 55.9527 183.676 56.2466C183.944 56.5404 184.158 56.8588 184.318 57.2016C184.435 56.9077 184.666 56.6139 185.011 56.3201C185.363 56.018 185.8 55.7691 186.32 55.5732C186.849 55.3773 187.416 55.2794 188.02 55.2794Z" fill="#3E00FF"/>
</svg>
