<svg width="188" height="76" viewBox="0 0 188 76" fill="none" xmlns="http://www.w3.org/2000/svg">
<path d="M37.7833 12.95L32.0569 42.4699L22.8214 42.4699L19.2576 18.5452L18.5003 18.5452L14.9872 42.4699L5.75563 42.4699L0.0292969 12.95L5.32235 12.95L9.96743 36.8747L10.5061 36.8747L14.0699 12.95L23.7387 12.95L27.3026 36.8747L27.8412 36.8747L32.4863 12.95L37.7833 12.95Z" fill="#3E00FF"/>
<path d="M53.9872 23.663L53.9872 18.6054L39.404 18.6054L39.404 12.95L59.0656 12.95L59.0656 36.8747L62.6841 36.8747L62.6841 42.4699L54.6898 42.4699L54.1512 39.3175L53.9872 39.3175C53.5539 40.1905 52.6913 40.9432 51.3953 41.5797C50.0994 42.2162 48.4795 42.5301 46.5356 42.5301C43.366 42.5301 40.9342 41.6098 39.244 39.7648C37.5499 37.9198 36.7067 35.5673 36.7067 32.7117C36.7067 29.856 37.7138 27.4863 39.7319 25.9553C41.75 24.4285 44.4511 23.663 47.8354 23.663L53.9911 23.663L53.9872 23.663ZM53.9872 28.7206L48.5849 28.7206C47.4334 28.7206 46.4419 28.8582 45.6144 29.1378C44.7868 29.4173 44.1115 29.7614 43.5885 30.1785C43.0654 30.5957 42.6868 31.0731 42.4526 31.6064C42.2184 32.144 42.1013 32.6686 42.1013 33.1847C42.1013 34.2169 42.3979 35.0684 42.9913 35.7436C43.5846 36.4188 44.2599 36.8747 45.0171 37.1113C45.7744 37.3478 46.5122 37.4682 47.2304 37.4682C47.4802 37.4682 47.9408 37.4381 48.6083 37.3779C49.2758 37.3177 50.0409 37.0596 50.9035 36.6038C51.7662 36.1479 52.4961 35.5028 53.0894 34.6685C53.6828 33.8341 53.9794 32.845 53.9794 31.6924L53.9794 28.7163L53.9872 28.7206Z" fill="#3E00FF"/>
<path d="M67.5974 21.5768C67.6676 22.3294 68.0853 22.9272 68.8387 23.3616C69.5959 23.8003 70.5406 24.1873 71.6765 24.5228C72.8124 24.8582 74.0263 25.2195 75.3223 25.5937C76.6182 25.9721 77.8244 26.4968 78.9407 27.172C80.0571 27.8472 80.9822 28.7289 81.7239 29.8212C82.4616 30.9136 82.8325 32.3328 82.8325 34.0746C82.8325 35.1455 82.6451 36.1992 82.2665 37.227C81.8878 38.2592 81.2867 39.1838 80.4553 39.9924C79.6277 40.8052 78.5543 41.4718 77.2427 41.9879C75.9273 42.504 74.3542 42.762 72.5157 42.762C71.0402 42.762 69.6623 42.5126 68.382 42.018C67.1055 41.5234 65.9775 40.8267 65.0055 39.9365C64.0335 39.0419 63.249 37.9925 62.6556 36.784C62.0623 35.5756 61.711 34.2552 61.6017 32.8274L67.1641 32.8274C67.2734 33.4209 67.4412 34.0187 67.6754 34.6122C67.9097 35.2057 68.2492 35.7433 68.702 36.2207C69.1548 36.698 69.7208 37.0765 70.4039 37.3517C71.087 37.6313 71.9185 37.7689 72.8904 37.7689C74.0771 37.7689 75.0061 37.6184 75.6736 37.3216C76.3411 37.0249 76.8329 36.6765 77.1608 36.2809C77.4848 35.8852 77.6838 35.5196 77.7541 35.1799C77.8244 34.8444 77.8634 34.6337 77.8634 34.5563L77.8634 34.1993C77.8634 33.0898 77.5199 32.2253 76.8368 31.6103C76.1537 30.9953 75.2442 30.5008 74.1083 30.1223C72.9724 29.7438 71.7389 29.4299 70.4078 29.1718C69.0768 28.9138 67.8316 28.5095 66.6801 27.9504C65.5286 27.3957 64.5644 26.6 63.7915 25.5679C63.0148 24.5357 62.6322 23.1079 62.6322 21.2844C62.6322 20.2135 62.804 19.1813 63.1436 18.1922C63.4871 17.1987 64.0257 16.3085 64.7635 15.5129C65.5012 14.7215 66.4459 14.085 67.6013 13.6077C68.7528 13.1303 70.1385 12.8937 71.7584 12.8937C73.0895 12.8937 74.3698 13.0744 75.5916 13.4313C76.8173 13.7883 77.8946 14.3345 78.8314 15.0699C79.7683 15.8053 80.5138 16.7343 81.072 17.8653C81.6302 18.9964 81.9112 20.3167 81.9112 21.822L76.5089 21.822C76.4347 21.3446 76.3098 20.8801 76.1303 20.4242C75.9507 19.9684 75.6892 19.5598 75.3457 19.2028C75.0022 18.8459 74.5533 18.5491 73.9951 18.3083C73.4369 18.0718 72.7421 17.9298 71.9146 17.8911L71.5359 17.8911C70.7787 17.8911 70.1307 18.0116 69.592 18.2481C69.0534 18.4846 68.6279 18.8029 68.3234 19.1985C68.0189 19.5942 67.8199 19.9813 67.7301 20.3597C67.6403 20.7382 67.5974 21.065 67.5974 21.3403L67.5974 21.5768Z" fill="#3E00FF"/>
<path d="M96.0612 13.1259C98.4033 13.1259 100.39 13.5646 102.03 14.4333C103.669 15.3064 104.981 16.5278 105.972 18.0932C106.963 19.663 107.619 21.3445 107.943 23.1508C108.267 24.9571 108.431 26.6516 108.431 28.2385C108.431 29.0342 108.396 29.8255 108.322 30.6211L88.5002 30.6211C88.5002 32.0102 88.6993 33.1413 89.0936 34.0143C89.4878 34.8874 90.0304 35.5626 90.7135 36.04C91.3966 36.5173 92.1734 36.8442 93.036 37.0205C93.8987 37.2012 94.8199 37.2872 95.7919 37.2872C96.475 37.2872 97.1776 37.2571 97.8997 37.1968C98.6218 37.1366 99.2854 36.999 99.8983 36.7797C100.511 36.5603 101.058 36.2335 101.546 35.7991C102.033 35.3648 102.365 34.767 102.545 34.0143L107.729 34.0143C107.369 35.6013 106.819 36.9388 106.081 38.0312C105.344 39.1236 104.461 40.0052 103.435 40.6804C102.408 41.3556 101.257 41.8502 99.9763 42.1684C98.696 42.4867 97.3376 42.6458 95.8973 42.6458C91.541 42.6458 88.3636 41.3943 86.3651 38.8956C84.3665 36.3969 83.3672 32.7284 83.3672 27.8859C83.3672 25.7441 83.6288 23.7701 84.1518 21.9638C84.671 20.1575 85.4556 18.6007 86.5017 17.2933C87.5439 15.9859 88.8594 14.9623 90.4442 14.2269C92.029 13.4915 93.9026 13.1259 96.0612 13.1259ZM103.298 25.3872C103.263 24.9098 103.173 24.269 103.029 23.4519C102.884 22.639 102.568 21.8434 102.084 21.0693C101.596 20.2952 100.886 19.6329 99.949 19.0738C99.0122 18.519 97.7358 18.2394 96.1158 18.2394C94.6404 18.2394 93.4147 18.476 92.4427 18.9533C91.4708 19.4307 90.6862 20.0242 90.0928 20.7381C89.4995 21.452 89.0858 22.2262 88.8516 23.0605C88.6174 23.8948 88.5002 24.669 88.5002 25.3829L103.298 25.3829L103.298 25.3872Z" fill="#3E00FF"/>
<path d="M121.664 13.1259C124.006 13.1259 125.993 13.5646 127.633 14.4333C129.272 15.3064 130.584 16.5278 131.575 18.0932C132.566 19.663 133.222 21.3445 133.546 23.1508C133.87 24.9571 134.034 26.6516 134.034 28.2385C134.034 29.0342 133.999 29.8255 133.925 30.6211L114.103 30.6211C114.103 32.0102 114.302 33.1413 114.697 34.0143C115.091 34.8874 115.633 35.5626 116.317 36.04C117 36.5173 117.776 36.8442 118.639 37.0205C119.502 37.2012 120.423 37.2872 121.395 37.2872C122.078 37.2872 122.781 37.2571 123.503 37.1968C124.225 37.1366 124.888 36.999 125.501 36.7797C126.114 36.5603 126.661 36.2335 127.149 35.7991C127.636 35.3648 127.968 34.767 128.148 34.0143L133.332 34.0143C132.972 35.6013 132.422 36.9388 131.684 38.0312C130.947 39.1236 130.064 40.0052 129.038 40.6804C128.011 41.3556 126.86 41.8502 125.579 42.1684C124.303 42.4867 122.941 42.6458 121.5 42.6458C117.144 42.6458 113.967 41.3943 111.968 38.8956C109.97 36.3969 108.97 32.7284 108.97 27.8859C108.97 25.7441 109.232 23.7701 109.755 21.9638C110.274 20.1575 111.059 18.6007 112.105 17.2933C113.147 15.9859 114.462 14.9623 116.047 14.2269C117.632 13.4915 119.506 13.1259 121.664 13.1259ZM128.901 25.3872C128.866 24.9098 128.776 24.269 128.632 23.4519C128.487 22.639 128.171 21.8434 127.687 21.0693C127.199 20.2952 126.489 19.6329 125.552 19.0738C124.615 18.519 123.339 18.2394 121.719 18.2394C120.243 18.2394 119.018 18.476 118.046 18.9533C117.074 19.4307 116.289 20.0242 115.696 20.7381C115.103 21.452 114.689 22.2262 114.455 23.0605C114.22 23.8948 114.103 24.669 114.103 25.3829L128.901 25.3829L128.901 25.3872Z" fill="#3E00FF"/>
<path d="M135.654 0.80957L140.732 0.80957L140.732 42.4703L135.654 42.4703L135.654 0.80957Z" fill="#3E00FF"/>
<path d="M158.013 23.663L158.013 18.6054L143.429 18.6054L143.429 12.95L163.091 12.95L163.091 36.8747L166.709 36.8747L166.709 42.4699L158.715 42.4699L158.177 39.3175L158.013 39.3175C157.579 40.1905 156.717 40.9432 155.421 41.5797C154.125 42.2162 152.505 42.5301 150.561 42.5301C147.391 42.5301 144.96 41.6098 143.269 39.7648C141.575 37.9198 140.732 35.5673 140.732 32.7117C140.732 29.856 141.739 27.4863 143.757 25.9553C145.775 24.4285 148.477 23.663 151.861 23.663L158.017 23.663L158.013 23.663ZM158.013 28.7206L152.61 28.7206C151.459 28.7206 150.467 28.8582 149.64 29.1378C148.812 29.4173 148.137 29.7614 147.614 30.1785C147.091 30.5957 146.712 31.0731 146.478 31.6064C146.244 32.144 146.127 32.6686 146.127 33.1847C146.127 34.2169 146.423 35.0684 147.017 35.7436C147.61 36.4188 148.285 36.8747 149.043 37.1113C149.8 37.3478 150.538 37.4682 151.256 37.4682C151.506 37.4682 151.966 37.4381 152.634 37.3779C153.301 37.3177 154.066 37.0596 154.929 36.6038C155.792 36.1479 156.522 35.5028 157.115 34.6685C157.708 33.8341 158.005 32.845 158.005 31.6924L158.005 28.7163L158.013 28.7206Z" fill="#3E00FF"/>
<path d="M178.517 26.3463L178.888 26.3463L179.291 26.3711L179.706 26.4207L180.065 26.4828L180.458 26.582L180.861 26.7061L181.243 26.855L181.516 26.9791L181.788 27.1156L181.973 27.2149L182.213 27.3638L182.519 27.5623L182.813 27.7857L182.955 27.8973L183.129 28.0462L183.282 28.1827L183.434 28.3316L183.554 28.4433L183.631 28.5302L183.718 28.617L184.012 28.9521L184.089 29.0513L184.209 29.2002L184.307 29.3367L184.437 29.5228L184.59 29.7586L184.721 29.9696L184.841 30.1805L184.939 30.3666L185.026 30.5403L185.135 30.7637L185.266 31.0615L185.364 31.3097L185.484 31.6447L185.626 32.1162L185.735 32.5629L185.8 32.898L185.866 33.295L185.92 33.8162L185.942 34.176L185.942 34.9578L185.909 35.4169L185.855 35.9008L185.757 36.4592L185.637 36.9555L185.506 37.4023L185.386 37.7497L185.255 38.0723L185.168 38.2709L185.026 38.5811L184.993 38.5811L184.993 38.5562L184.95 38.5314L184.819 38.3949L184.699 38.2833L184.546 38.1219L184.427 38.0103L184.307 37.8862L184.187 37.7745L184.045 37.6256L183.925 37.5139L183.772 37.3526L183.652 37.2409L183.511 37.092L183.391 36.9804L183.26 36.8439L183.173 36.757L183.02 36.6081L182.911 36.4964L182.791 36.3848L182.66 36.2483L182.573 36.1614L182.431 36.0249L182.311 35.9008L182.202 35.8016L182.104 35.8388L181.843 35.9256L181.646 35.9629L181.385 35.9629L181.21 35.9256L181.101 35.8636L181.003 35.7519L180.938 35.6278L180.905 35.4913L180.894 35.4169L180.894 35.3176L180.905 35.2556L180.741 35.2928L180.622 35.3052L180.512 35.3052L180.36 35.2804L180.229 35.2308L180.098 35.1439L180.022 35.057L179.946 34.9206L179.902 34.8213L179.869 34.6972L179.858 34.6103L179.858 34.4242L179.88 34.2629L179.891 34.2133L179.782 34.2009L179.618 34.1388L179.509 34.0644L179.411 33.9651L179.335 33.8286L179.302 33.7169L179.291 33.5432L179.313 33.3323L179.368 33.1089L179.302 33.0841L179.193 33.0096L179.084 32.898L178.986 32.7242L178.943 32.5753L178.932 32.5133L178.932 32.3768L178.964 32.1907L179.084 31.9053L179.215 31.6943L179.313 31.5578L179.411 31.4338L179.433 31.3841L179.248 31.2352L179.128 31.1484L178.801 30.9002L178.321 30.5403L177.961 30.2674L177.721 30.0936L177.471 29.9571L177.078 29.771L176.882 29.7214L176.697 29.7214L176.544 29.7586L176.38 29.8579L176.271 29.9696L176.184 30.106L176.13 30.2301L176.097 30.4039L176.097 30.6396L176.141 30.8878L176.206 31.0863L176.26 31.1856L176.369 31.2973L176.555 31.4462L176.729 31.5578L176.882 31.6447L176.86 31.6571L176.653 31.5703L176.413 31.4338L176.228 31.2849L176.173 31.2476L176.075 31.2476L175.912 31.2849L175.77 31.3469L175.661 31.4214L175.563 31.5206L175.465 31.6943L175.41 31.8805L175.377 32.0914L175.377 32.3396L175.421 32.5257L175.497 32.6622L175.595 32.7739L175.759 32.9104L175.912 33.0096L176.042 33.0841L175.999 33.0965L175.792 32.9972L175.617 32.8856L175.53 32.8111L175.486 32.7987L175.388 32.8731L175.323 32.9352L175.225 33.1089L175.181 33.2578L175.17 33.3323L175.17 33.6053L175.225 33.8658L175.301 34.0644L175.388 34.1885L175.486 34.3125L175.628 34.449L175.737 34.5359L175.704 34.5483L175.53 34.449L175.41 34.3622L175.257 34.2257L175.214 34.176L175.181 34.176L175.072 34.4614L175.039 34.6227L175.028 34.722L175.028 34.8709L175.061 35.0819L175.116 35.2432L175.181 35.3797L175.29 35.541L175.41 35.6899L175.541 35.8264L175.693 35.9877L175.846 36.1242L176.021 36.2731L176.315 36.4964L176.479 36.6081L176.762 36.7942L177.122 37.0052L177.492 37.2037L177.907 37.4023L178.223 37.5387L178.463 37.638L178.746 37.7249L179.193 37.8241L179.324 38.0971L179.455 38.3329L179.629 38.6307L179.782 38.8789L179.924 39.1022L180.251 39.5862L180.371 39.7599L180.469 39.8964L180.589 40.0701L180.72 40.2438L180.818 40.3803L180.938 40.5416L181.33 41.0628L181.461 41.2241L181.537 41.3233L181.635 41.4474L181.766 41.6212L181.93 41.8197L181.973 41.8693L181.963 41.9065L181.657 42.0679L181.363 42.2043L181.101 42.316L180.731 42.4525L180.251 42.589L179.847 42.6759L179.379 42.7379L179.073 42.7627L178.397 42.7627L177.972 42.7255L177.558 42.6635L177.165 42.5766L176.773 42.4649L176.293 42.2912L176.184 42.2416L176.173 42.2043L176.315 41.919L176.468 41.6087L176.62 41.3109L176.74 41.0628L176.871 40.8022L177.024 40.492L177.449 39.6358L177.623 39.2884L177.787 38.9533L177.929 38.6679L178.038 38.4446L178.103 38.3329L178.245 38.2212L178.441 38.0599L178.605 37.9358L178.615 37.911L178.43 37.8614L178.125 37.7373L177.71 37.5512L177.362 37.3774L177.122 37.2534L176.947 37.1541L176.653 36.9804L176.391 36.8066L176.206 36.6826L176.042 36.5585L175.857 36.4096L175.715 36.2855L175.541 36.1242L175.41 35.9877L175.334 35.9132L175.301 35.9008L175.236 36.1738L175.214 36.3723L175.094 36.5337L174.963 36.7074L174.865 36.8439L174.734 37.0176L174.636 37.1541L174.494 37.3402L174.374 37.5015L174.276 37.638L174.145 37.8117L174.047 37.9482L173.905 38.1344L173.807 38.2709L173.666 38.457L173.567 38.5935L173.426 38.7796L173.328 38.9161L173.186 39.1022L173.088 39.2387L172.979 39.3876L172.946 39.4373L172.924 39.4373L172.804 39.2387L172.673 39.0154L172.532 38.7548L172.401 38.4942L172.248 38.1592L172.107 37.8117L171.987 37.4767L171.845 37.0176L171.725 36.5213L171.638 36.0621L171.583 35.6651L171.54 35.1935L171.518 34.7344L171.518 34.3374L171.54 33.9155L171.572 33.5432L171.627 33.1213L171.725 32.5878L171.834 32.141L171.976 31.6695L172.096 31.3345L172.194 31.0863L172.292 30.8506L172.423 30.5776L172.521 30.379L172.695 30.0564L172.772 29.9323L172.902 29.7214L173.044 29.5104L173.164 29.3367L173.262 29.2126L173.36 29.0761L173.535 28.8652L173.84 28.5178L173.96 28.4061L174.036 28.3192L174.189 28.1827L174.32 28.0586L174.527 27.8849L174.712 27.736L174.985 27.5375L175.29 27.3389L175.541 27.19L175.792 27.0536L176.13 26.8922L176.5 26.7433L176.827 26.6317L177.133 26.5448L177.591 26.4455L178.027 26.3835L178.288 26.3587L178.517 26.3463Z" fill="#F68932"/>
<path d="M181.787 29.8855L181.874 29.8855L182.005 29.9227L182.092 29.9723L182.212 30.084L182.299 30.2205L182.354 30.357L182.387 30.4935L182.397 30.6051L182.397 30.7416L182.365 30.9774L182.332 31.0767L182.234 31.2008L182.049 31.3621L181.885 31.4861L181.656 31.6475L181.482 31.7591L181.231 31.8956L180.947 32.0321L180.762 32.1066L180.893 32.0693L181.155 31.9701L181.449 31.8336L181.678 31.7095L181.918 31.5606L182.168 31.3869L182.343 31.2504L182.376 31.2256L182.485 31.238L182.659 31.3L182.812 31.3869L182.91 31.4737L182.997 31.573L183.073 31.7219L183.117 31.908L183.117 32.181L183.073 32.392L183.041 32.4664L182.823 32.6153L182.605 32.7518L182.343 32.8883L182.049 33.0124L181.787 33.0993L181.46 33.1737L181.743 33.1365L182.005 33.0744L182.332 32.9628L182.692 32.8015L183.052 32.6029L183.084 32.6153L183.172 32.8263L183.215 32.9752L183.226 33.0496L183.226 33.3102L183.204 33.4219L183.161 33.4839L182.964 33.6452L182.725 33.819L182.528 33.943L182.365 34.0299L182.43 34.0175L182.648 33.9182L182.932 33.7569L183.182 33.5956L183.226 33.5832L183.313 33.6576L183.411 33.7941L183.455 33.9554L183.466 34.1664L183.444 34.3401L183.4 34.4766L183.346 34.5883L183.259 34.6503L182.975 34.7744L182.746 34.8364L182.67 34.8489L182.419 34.8489L182.288 34.8116L182.212 34.762L182.147 34.6503L182.114 34.5138L182.114 34.4146L182.136 34.2905L182.19 34.1292L182.223 34.0423L182.125 34.0671L181.863 34.154L181.656 34.1912L181.536 34.1912L181.373 34.154L181.253 34.0795L181.165 33.9679L181.111 33.8562L181.078 33.67L181.078 33.546L181.111 33.335L181.176 33.1489L181.187 33.1117L180.958 33.1117L180.795 33.0744L180.664 33L180.566 32.9007L180.522 32.789L180.511 32.727L180.511 32.5905L180.555 32.3672L180.62 32.1686L180.664 32.0693L180.566 32.0569L180.424 31.9949L180.326 31.9204L180.261 31.8584L180.195 31.7467L180.151 31.5978L180.151 31.4613L180.195 31.3L180.304 31.0643L180.435 30.8657L180.555 30.7168L180.609 30.6548L180.893 30.4562L181.329 30.1584L181.569 29.9971L181.732 29.8979L181.787 29.8855Z" fill="#F68932"/>
<path d="M179.486 28.9807L179.944 28.9807L180.195 29.018L180.457 29.08L180.576 29.1172L180.969 29.08L181.405 29.08L181.612 29.1048L181.787 29.1669L181.885 29.2413L181.939 29.3406L181.939 29.4399L181.885 29.5888L181.808 29.7128L181.623 29.8618L181.449 29.9858L181.307 30.0851L181.165 30.1596L180.991 30.2092L180.827 30.234L180.5 30.234L180.413 30.1844L179.944 29.8245L179.791 29.7128L179.334 29.3654L179.159 29.2413L178.996 29.1172L178.963 29.08L179.017 29.0552L179.366 28.9932L179.486 28.9807Z" fill="#F68932"/>
<path d="M187.029 34.7126C187.029 39.6401 183.379 43.6346 178.875 43.6346C174.372 43.6346 170.721 39.6401 170.721 34.7126C170.721 29.7851 174.372 25.7906 178.875 25.7906C183.379 25.7906 187.029 29.7851 187.029 34.7126Z" fill="#F68932"/>
<path d="M4.93743 49.3844L18.0741 49.3844L18.0741 53.3204L9.58125 53.3204L9.58125 57.3615L17.9962 57.3615L17.9962 61.1773L9.58125 61.1773L9.58125 65.2786L18.0741 65.2786L18.0741 69.2145L4.93743 69.2145L4.93743 49.3844Z" fill="#F68932"/>
<path d="M21.9444 64.3171L21.9444 60.4412L29.9698 60.4412L29.9698 64.3171L21.9444 64.3171Z" fill="#3E00FF"/>
<path d="M42.9762 49.0239C44.254 49.0239 45.3708 49.1591 46.3266 49.4295C47.2823 49.6999 48.0511 49.9853 48.6329 50.2858C49.2147 50.5862 49.5679 50.7865 49.6926 50.8867L47.4486 54.5072C47.2823 54.387 46.9967 54.2117 46.5915 53.9814C46.1967 53.751 45.724 53.5457 45.1734 53.3655C44.6332 53.1852 44.067 53.095 43.4748 53.095C42.6749 53.095 42.0256 53.2353 41.5269 53.5157C41.0387 53.7861 40.7945 54.1917 40.7945 54.7325C40.7945 55.1031 40.9244 55.4386 41.1841 55.7391C41.4542 56.0295 41.8594 56.3099 42.3996 56.5803C42.9502 56.8407 43.6463 57.1262 44.4877 57.4366C45.2565 57.7071 45.9785 58.0275 46.6538 58.3981C47.3291 58.7687 47.9213 59.2093 48.4303 59.7201C48.9498 60.2209 49.3601 60.8018 49.6614 61.4628C49.9627 62.1238 50.1133 62.8749 50.1133 63.7162C50.1133 64.7177 49.9003 65.589 49.4744 66.3302C49.0485 67.0613 48.4667 67.6672 47.7291 68.1479C47.0019 68.6287 46.1707 68.9842 45.2357 69.2145C44.3111 69.4549 43.3502 69.5751 42.3528 69.5751C40.94 69.5751 39.6725 69.4199 38.5505 69.1094C37.4389 68.7989 36.5403 68.4634 35.8546 68.1029C35.169 67.7423 34.7586 67.5019 34.6235 67.3818L36.9454 63.611C37.0701 63.7012 37.3091 63.8464 37.6623 64.0467C38.0259 64.247 38.4674 64.4573 38.9869 64.6777C39.5063 64.888 40.0569 65.0682 40.6387 65.2185C41.2309 65.3687 41.8126 65.4438 42.384 65.4438C43.3398 65.4438 44.0566 65.2686 44.5345 64.918C45.0124 64.5575 45.2513 64.0868 45.2513 63.5059C45.2513 63.0752 45.1007 62.6896 44.7994 62.3491C44.4981 62.0086 44.0462 61.6881 43.4437 61.3876C42.8411 61.0772 42.0879 60.7517 41.1841 60.4112C40.2803 60.0606 39.4336 59.635 38.644 59.1342C37.8649 58.6335 37.2311 58.0075 36.7429 57.2564C36.2546 56.5052 36.0105 55.5738 36.0105 54.4621C36.0105 53.3504 36.3325 52.389 36.9766 51.5777C37.6311 50.7565 38.4882 50.1255 39.5479 49.6849C40.6179 49.2442 41.7607 49.0239 42.9762 49.0239Z" fill="#F68932"/>
<path d="M53.0919 69.2145L53.0919 56.8808L57.8292 56.8808L57.8292 69.2145L53.0919 69.2145ZM55.5229 54.3419C54.7749 54.3419 54.1412 54.0916 53.6217 53.5908C53.1023 53.08 52.8426 52.4741 52.8426 51.773C52.8426 51.072 53.1023 50.466 53.6217 49.9553C54.1516 49.4345 54.7853 49.1741 55.5229 49.1741C56.0112 49.1741 56.4579 49.2943 56.863 49.5346C57.2682 49.765 57.5955 50.0755 57.8448 50.466C58.0941 50.8566 58.2188 51.2923 58.2188 51.773C58.2188 52.4741 57.9539 53.08 57.424 53.5908C56.8942 54.0916 56.2605 54.3419 55.5229 54.3419Z" fill="#F68932"/>
<path d="M67.8093 75.8096C66.9159 75.8096 66.0276 75.7345 65.1446 75.5842C64.2719 75.434 63.4564 75.1786 62.698 74.8181C61.9396 74.4575 61.3007 73.9618 60.7813 73.3308L63.5551 70.5516C63.794 70.822 64.0849 71.0874 64.4277 71.3478C64.781 71.6082 65.2121 71.8235 65.7212 71.9938C66.2406 72.164 66.8691 72.2492 67.6067 72.2492C68.2924 72.2492 68.8898 72.134 69.3988 71.9036C69.9079 71.6733 70.3026 71.3378 70.5831 70.8971C70.874 70.4564 71.0195 69.9206 71.0195 69.2897L71.0195 68.9892L75.6789 68.9892L75.6789 69.5601C75.6789 70.9221 75.3256 72.0689 74.6192 73.0003C73.9231 73.9317 72.983 74.6328 71.7986 75.1035C70.6143 75.5742 69.2845 75.8096 67.8093 75.8096ZM71.0195 69.2145L71.0195 67.2165C70.926 67.4168 70.687 67.7073 70.3026 68.0878C69.9286 68.4684 69.43 68.8139 68.8066 69.1244C68.1833 69.4249 67.4561 69.5751 66.625 69.5751C65.3783 69.5751 64.2875 69.2847 63.3525 68.7038C62.4175 68.1129 61.6903 67.3267 61.1708 66.3452C60.6514 65.3537 60.3917 64.257 60.3917 63.0552C60.3917 61.8534 60.6514 60.7617 61.1708 59.7802C61.6903 58.7887 62.4175 57.9975 63.3525 57.4066C64.2875 56.8157 65.3783 56.5203 66.625 56.5203C67.4249 56.5203 68.1262 56.6454 68.7287 56.8958C69.3313 57.1362 69.8196 57.4266 70.1936 57.7672C70.5676 58.0977 70.8273 58.4031 70.9727 58.6835L70.9727 56.8808L75.6789 56.8808L75.6789 69.2145L71.0195 69.2145ZM65.0355 63.0552C65.0355 63.616 65.1706 64.1218 65.4407 64.5725C65.7108 65.0132 66.0692 65.3587 66.5159 65.6091C66.973 65.8594 67.4769 65.9846 68.0275 65.9846C68.5989 65.9846 69.1027 65.8594 69.5391 65.6091C69.9754 65.3587 70.3182 65.0132 70.5676 64.5725C70.8273 64.1218 70.9571 63.616 70.9571 63.0552C70.9571 62.4943 70.8273 61.9936 70.5676 61.5529C70.3182 61.1022 69.9754 60.7517 69.5391 60.5013C69.1027 60.2409 68.5989 60.1107 68.0275 60.1107C67.4769 60.1107 66.973 60.2409 66.5159 60.5013C66.0692 60.7517 65.7108 61.1022 65.4407 61.5529C65.1706 61.9936 65.0355 62.4943 65.0355 63.0552Z" fill="#F68932"/>
<path d="M87.5199 56.5203C88.4134 56.5203 89.286 56.6955 90.1379 57.0461C90.9898 57.3966 91.6911 57.9524 92.2417 58.7136C92.7923 59.4647 93.0676 60.4562 93.0676 61.6881L93.0676 69.2145L88.3147 69.2145L88.3147 62.4392C88.3147 61.5579 88.0965 60.8969 87.6602 60.4562C87.2239 60.0056 86.6525 59.7802 85.946 59.7802C85.4785 59.7802 85.037 59.9004 84.6215 60.1408C84.2163 60.3711 83.8839 60.7016 83.6241 61.1323C83.3748 61.5529 83.2501 62.0386 83.2501 62.5895L83.2501 69.2145L78.5128 69.2145L78.5128 56.8808L83.2501 56.8808L83.2501 58.6986C83.3748 58.3681 83.6345 58.0376 84.0293 57.7071C84.4345 57.3665 84.9383 57.0861 85.5409 56.8658C86.1538 56.6354 86.8135 56.5203 87.5199 56.5203Z" fill="#F68932"/>
<path d="M105.747 69.2145L105.747 67.2165C105.654 67.4168 105.415 67.7073 105.03 68.0878C104.656 68.4684 104.158 68.8139 103.534 69.1244C102.911 69.4249 102.184 69.5751 101.353 69.5751C100.106 69.5751 99.015 69.2847 98.08 68.7038C97.145 68.1129 96.4178 67.3267 95.8984 66.3452C95.3789 65.3537 95.1192 64.257 95.1192 63.0552C95.1192 61.8534 95.3789 60.7617 95.8984 59.7802C96.4178 58.7887 97.145 57.9975 98.08 57.4066C99.015 56.8157 100.106 56.5203 101.353 56.5203C102.152 56.5203 102.854 56.6454 103.456 56.8958C104.059 57.1362 104.547 57.4266 104.921 57.7672C105.295 58.0977 105.555 58.4031 105.7 58.6835L105.7 56.8808L110.406 56.8808L110.406 69.2145L105.747 69.2145ZM99.763 63.0552C99.763 63.616 99.8981 64.1218 100.168 64.5725C100.438 65.0132 100.797 65.3587 101.243 65.6091C101.701 65.8594 102.204 65.9846 102.755 65.9846C103.326 65.9846 103.83 65.8594 104.267 65.6091C104.703 65.3587 105.046 65.0132 105.295 64.5725C105.555 64.1218 105.685 63.616 105.685 63.0552C105.685 62.4943 105.555 61.9936 105.295 61.5529C105.046 61.1022 104.703 60.7517 104.267 60.5013C103.83 60.2409 103.326 60.1107 102.755 60.1107C102.204 60.1107 101.701 60.2409 101.243 60.5013C100.797 60.7517 100.438 61.1022 100.168 61.5529C99.8981 61.9936 99.763 62.4943 99.763 63.0552Z" fill="#F68932"/>
<path d="M112.322 56.8808L114.503 56.8808L114.503 51.8181L119.194 51.8181L119.194 56.8808L122.061 56.8808L122.061 60.6365L119.194 60.6365L119.194 64.0767C119.194 64.5875 119.272 65.0031 119.428 65.3236C119.583 65.6341 119.869 65.7893 120.285 65.7893C120.565 65.7893 120.804 65.7292 121.002 65.6091C121.199 65.4889 121.318 65.4088 121.36 65.3687L122.981 68.6136C122.908 68.6737 122.679 68.7839 122.295 68.9441C121.921 69.1044 121.443 69.2496 120.861 69.3798C120.28 69.51 119.63 69.5751 118.913 69.5751C117.636 69.5751 116.581 69.2296 115.75 68.5385C114.919 67.8375 114.503 66.7608 114.503 65.3086L114.503 60.6365L112.322 60.6365L112.322 56.8808Z" fill="#F68932"/>
<path d="M129.223 62.5895C129.223 63.571 129.415 64.3572 129.799 64.9481C130.184 65.5289 130.828 65.8194 131.732 65.8194C132.656 65.8194 133.306 65.5289 133.68 64.9481C134.064 64.3572 134.256 63.571 134.256 62.5895L134.256 56.8808L138.931 56.8808L138.931 63.0702C138.931 64.3922 138.645 65.544 138.074 66.5255C137.513 67.4969 136.697 68.2481 135.627 68.7789C134.557 69.3097 133.259 69.5751 131.732 69.5751C130.215 69.5751 128.921 69.3097 127.851 68.7789C126.781 68.2481 125.966 67.4969 125.405 66.5255C124.844 65.544 124.563 64.3922 124.563 63.0702L124.563 56.8808L129.223 56.8808L129.223 62.5895Z" fill="#F68932"/>
<path d="M146.141 69.2145L141.404 69.2145L141.404 56.8808L146.141 56.8808L146.141 58.7887L146.064 58.7887C146.147 58.5583 146.349 58.2679 146.671 57.9174C146.993 57.5568 147.445 57.2363 148.027 56.9559C148.609 56.6655 149.32 56.5203 150.162 56.5203C150.754 56.5203 151.3 56.6104 151.798 56.7907C152.297 56.9609 152.66 57.1262 152.889 57.2864L151.05 60.9971C150.905 60.8268 150.645 60.6515 150.271 60.4713C149.907 60.281 149.45 60.1858 148.9 60.1858C148.266 60.1858 147.741 60.3411 147.326 60.6515C146.921 60.962 146.619 61.3376 146.422 61.7782C146.235 62.2189 146.141 62.6345 146.141 63.0251L146.141 69.2145Z" fill="#F68932"/>
<path d="M157.603 64.0166C157.634 64.4573 157.779 64.8479 158.039 65.1884C158.299 65.5289 158.657 65.7994 159.114 65.9997C159.582 66.1899 160.132 66.2851 160.766 66.2851C161.369 66.2851 161.909 66.225 162.387 66.1048C162.875 65.9846 163.296 65.8344 163.649 65.6541C164.013 65.4739 164.293 65.2886 164.491 65.0983L166.329 67.9226C166.07 68.193 165.701 68.4584 165.223 68.7188C164.755 68.9692 164.137 69.1745 163.369 69.3347C162.6 69.495 161.628 69.5751 160.454 69.5751C159.042 69.5751 157.785 69.3197 156.683 68.8089C155.582 68.2981 154.715 67.547 154.081 66.5555C153.447 65.564 153.13 64.3522 153.13 62.92C153.13 61.7182 153.4 60.6365 153.941 59.675C154.491 58.7036 155.286 57.9374 156.325 57.3766C157.364 56.8057 158.616 56.5203 160.08 56.5203C161.473 56.5203 162.678 56.7656 163.696 57.2564C164.724 57.7471 165.514 58.4782 166.064 59.4497C166.625 60.4112 166.906 61.613 166.906 63.0552C166.906 63.1353 166.901 63.2956 166.89 63.5359C166.89 63.7763 166.88 63.9365 166.859 64.0166L157.603 64.0166ZM162.449 61.628C162.439 61.3075 162.35 60.9921 162.184 60.6816C162.018 60.3611 161.769 60.1007 161.436 59.9004C161.104 59.6901 160.678 59.5849 160.158 59.5849C159.639 59.5849 159.197 59.6851 158.834 59.8854C158.481 60.0757 158.21 60.326 158.023 60.6365C157.836 60.947 157.733 61.2775 157.712 61.628L162.449 61.628Z" fill="#F68932"/>
</svg>
