<svg width="30" height="27" viewBox="0 0 30 27" fill="none" xmlns="http://www.w3.org/2000/svg">
<rect width="30" height="27" rx="4" fill="#E2DFFF"/>
<path d="M10.0381 7.42713H19.7524V14.1058H20.9666V6.21289H8.82373V20.7842H15.5002V19.57H10.0381V7.42713Z" fill="#3E00FF"/>
<path d="M11.252 8.6416H18.5377V9.85584H11.252V8.6416ZM11.252 11.0702H17.3233V12.2845H11.252V11.0702ZM11.252 13.4987H14.8948V14.713H11.252V13.4987ZM19.1447 14.7131C17.4681 14.7131 16.1089 16.0723 16.1089 17.7489C16.1089 19.4255 17.4681 20.7846 19.1447 20.7846C20.8213 20.7846 22.1804 19.4255 22.1804 17.7489C22.1804 16.0723 20.8214 14.7131 19.1447 14.7131ZM19.1447 19.5702C18.1403 19.5702 17.3233 18.7531 17.3233 17.7489C17.3233 16.7445 18.1404 15.9275 19.1447 15.9275C20.1491 15.9275 20.966 16.7447 20.966 17.7489C20.9662 18.7531 20.1491 19.5702 19.1447 19.5702Z" fill="#3E00FF"/>
<path d="M19.6002 16.4893H18.6895V17.9381L19.8414 19.0796L20.4824 18.4328L19.6002 17.5586V16.4893Z" fill="#3E00FF"/>
</svg>
