<svg width="160" height="145" viewBox="0 0 160 145" fill="none" xmlns="http://www.w3.org/2000/svg">
<path d="M5.25617 87.479C5.21903 87.2888 5.18178 87.0812 5.16247 86.8736C4.43021 81.9438 4.30725 76.9407 4.9919 72.0188C5.21434 70.4071 5.50862 68.8122 5.89269 67.234C7.0795 62.3088 9.37926 57.5319 12.6164 53.4761C14.5553 51.0565 16.8186 48.8944 19.3894 47.1112C27.2802 41.6393 35.7753 43.4181 44.9128 42.0241C51.3988 41.046 57.8638 39.6178 63.9456 37.2052C70.0454 34.7925 75.6722 31.3788 80.3592 26.8804C85.7231 21.7023 87.6537 15.3523 91.9025 9.67951C93.2357 7.88724 95.375 5.95108 98.467 4.33757C100.003 3.39237 101.666 2.58484 103.401 1.98459C105.155 1.38423 107.018 0.99092 108.972 0.839405C118.15 0.137705 127.484 4.00602 134.534 9.67293C142.071 15.7002 147.913 23.1239 151.967 31.2868C154.548 36.5159 156.397 42.0443 157.511 47.7334C159.831 59.5957 158.874 72.1032 154.468 83.7852C141.779 117.46 106.172 146.162 67.5976 144.029C67.2387 143.997 66.8799 143.982 66.521 143.95C66.3057 143.934 66.0904 143.918 65.8571 143.902C64.7266 143.806 63.578 143.692 62.447 143.527C59.4851 143.131 56.5396 142.51 53.6824 141.68C51.436 141.003 49.2427 140.204 47.1201 139.265C44.6379 138.191 42.2447 137.012 39.9408 135.764C38.1228 134.789 36.3583 133.744 34.6651 132.648C30.7746 130.163 27.2049 127.364 23.9732 124.165C22.4027 122.635 20.9032 121 19.5108 119.278C17.6304 117.005 15.9102 114.54 14.3502 111.901C11.321 106.779 8.82731 101.272 7.12131 95.5525C6.3324 92.8913 5.68673 90.1945 5.25617 87.479Z" fill="#FFE9D7"/>
<path d="M4.58408 63.9621C4.29541 63.964 4.06298 63.7402 4.06111 63.4586L4.04732 61.3854C4.04544 61.1038 4.27488 60.8769 4.56354 60.875C4.8522 60.873 5.08463 61.0968 5.08651 61.3785L5.1003 63.4516C5.10217 63.7333 4.87274 63.9602 4.58408 63.9621Z" fill="#3E00FF" fill-opacity="0.76"/>
<path d="M4.6172 68.9757C4.32854 68.9777 4.09611 68.7539 4.09424 68.4722L4.08052 66.4103C4.07865 66.1287 4.30808 65.9018 4.59674 65.8999C4.8854 65.8979 5.11784 66.1217 5.11971 66.4034L5.13343 68.4653C5.1353 68.7469 4.90587 68.9738 4.6172 68.9757Z" fill="#3E00FF" fill-opacity="0.76"/>
<path d="M8.25522 65.4138L6.11911 65.4281C5.83045 65.43 5.59802 65.2062 5.59615 64.9245C5.59427 64.6428 5.8237 64.4159 6.11237 64.414L8.24847 64.3998C8.53713 64.3979 8.76956 64.6217 8.77144 64.9034C8.77331 65.185 8.54388 65.4119 8.25522 65.4138Z" fill="#3E00FF" fill-opacity="0.76"/>
<path d="M3.08139 65.4485L0.945284 65.4627C0.656622 65.4646 0.424192 65.2408 0.422318 64.9592C0.420444 64.6775 0.649876 64.4506 0.938538 64.4487L3.07464 64.4345C3.36331 64.4326 3.59573 64.6564 3.59761 64.938C3.59948 65.2197 3.37005 65.4466 3.08139 65.4485Z" fill="#3E00FF"/>
<path d="M106.853 6.48808C106.332 6.49155 105.913 6.07802 105.91 5.55765L105.884 1.72769C105.881 1.20732 106.294 0.788245 106.815 0.784781C107.336 0.781317 107.755 1.19485 107.758 1.71522L107.784 5.54518C107.787 6.06555 107.374 6.48462 106.853 6.48808Z" fill="#3E00FF" fill-opacity="0.76"/>
<path d="M106.914 15.751C106.394 15.7544 105.974 15.3409 105.971 14.8205L105.946 11.0114C105.942 10.491 106.356 10.0719 106.877 10.0685C107.397 10.065 107.817 10.4785 107.82 10.9989L107.845 14.808C107.849 15.3284 107.435 15.7475 106.914 15.751Z" fill="#3E00FF" fill-opacity="0.76"/>
<path d="M113.472 9.17156L109.62 9.19719C109.099 9.20066 108.68 8.78713 108.676 8.26675C108.673 7.74638 109.086 7.32731 109.607 7.32384L113.46 7.29821C113.981 7.29475 114.4 7.70828 114.403 8.22865C114.407 8.74903 113.993 9.1681 113.472 9.17156Z" fill="#3E00FF" fill-opacity="0.76"/>
<path d="M104.143 9.23308L100.29 9.25872C99.7698 9.26218 99.3505 8.84865 99.3471 8.32827C99.3436 7.8079 99.7573 7.38883 100.278 7.38537L104.131 7.35974C104.651 7.35627 105.071 7.7698 105.074 8.29017C105.078 8.81055 104.664 9.22962 104.143 9.23308Z" fill="#3E00FF"/>
<path d="M125.145 133.565C124.717 133.567 124.372 133.232 124.369 132.809L124.349 129.699C124.346 129.277 124.686 128.937 125.114 128.934C125.542 128.931 125.886 129.267 125.889 129.689L125.91 132.799C125.913 133.221 125.573 133.562 125.145 133.565Z" fill="#3E00FF" fill-opacity="0.76"/>
<path d="M125.193 141.085C124.766 141.088 124.421 140.752 124.418 140.33L124.398 137.237C124.395 136.815 124.735 136.474 125.163 136.471C125.591 136.469 125.935 136.804 125.938 137.227L125.958 140.32C125.961 140.742 125.621 141.082 125.193 141.085Z" fill="#3E00FF" fill-opacity="0.76"/>
<path d="M130.583 135.743L127.417 135.764C126.989 135.767 126.645 135.431 126.642 135.009C126.639 134.586 126.979 134.246 127.407 134.243L130.573 134.222C131.001 134.219 131.345 134.555 131.348 134.977C131.351 135.4 131.011 135.74 130.583 135.743Z" fill="#3E00FF" fill-opacity="0.76"/>
<path d="M122.916 135.794L119.75 135.815C119.322 135.818 118.978 135.482 118.975 135.059C118.972 134.637 119.312 134.297 119.74 134.294L122.906 134.273C123.334 134.27 123.678 134.606 123.681 135.028C123.684 135.451 123.344 135.791 122.916 135.794Z" fill="#3E00FF" fill-opacity="0.76"/>
<path d="M82.6237 18.4995C50.4727 18.7134 24.4389 44.3511 24.6468 75.5944C24.8545 106.822 51.2272 132.127 83.3782 131.913C115.529 131.699 141.595 106.029 141.388 74.8177C141.18 43.5744 114.791 18.2855 82.6237 18.4995ZM83.3262 124.09C55.6238 124.274 32.9082 102.429 32.7294 75.5406C32.5501 48.5887 54.9738 26.5698 82.6762 26.3855C110.395 26.2011 133.126 47.9196 133.305 74.8715C133.484 101.76 111.061 123.906 83.3262 124.09Z" fill="#3E00FF"/>
<path d="M67.9933 72.8996C69.2467 75.14 70.9595 77.8524 72.3787 80.5034C73.8307 83.2018 75.9578 86.9408 75.9578 86.9408C75.9578 86.9408 82.0507 74.4214 86.44 67.9152C97.6394 51.3553 108.14 47.3739 108.14 47.3739C108.14 47.3739 107.107 56.1856 107.245 59.732C107.402 63.785 109.16 68.445 109.16 68.445C109.16 68.445 99.4686 74.0046 90.3097 83.7414C84.5329 89.8926 76.7909 101.948 76.7909 101.948C76.7909 101.948 70.1393 94.1849 64.9146 90.2448C59.1166 85.8651 52.1998 82.3321 52.1998 82.3321C52.1998 82.3321 57.8953 78.6519 60.7838 76.8116C63.6887 74.9869 67.9933 72.8996 67.9933 72.8996Z" fill="#3E00FF"/>
</svg>
