<svg width="25" height="28" viewBox="0 0 25 28" fill="none" xmlns="http://www.w3.org/2000/svg">
<path d="M22.5793 6.61108H16.5311C16.4242 6.61108 16.3216 6.5701 16.246 6.49717C16.1704 6.42424 16.1279 6.32533 16.1279 6.22219V0.388887C16.1279 0.285748 16.1704 0.186833 16.246 0.113902C16.3216 0.0409719 16.4242 0 16.5311 0C16.6381 0 16.7406 0.0409719 16.8163 0.113902C16.8919 0.186833 16.9344 0.285748 16.9344 0.388887V5.8333H22.5793C22.6863 5.8333 22.7888 5.87427 22.8644 5.9472C22.9401 6.02014 22.9825 6.11905 22.9825 6.22219C22.9825 6.32533 22.9401 6.42424 22.8644 6.49717C22.7888 6.5701 22.6863 6.61108 22.5793 6.61108Z" fill="#3E00FF"/>
<path d="M22.5805 10.4867C22.4735 10.4867 22.371 10.4458 22.2953 10.3728C22.2197 10.2999 22.1772 10.201 22.1772 10.0978V6.38319L16.3653 0.777774H4.43588C4.00812 0.777774 3.59789 0.941662 3.29542 1.23338C2.99295 1.52511 2.82303 1.92076 2.82303 2.33332V9.96873C2.82303 10.0719 2.78055 10.1708 2.70493 10.2437C2.62931 10.3166 2.52675 10.3576 2.41981 10.3576C2.31288 10.3576 2.21032 10.3166 2.1347 10.2437C2.05908 10.1708 2.0166 10.0719 2.0166 9.96873V2.33332C2.0166 1.71449 2.27149 1.121 2.72519 0.683415C3.17889 0.245832 3.79425 6.20271e-07 4.43588 6.20271e-07H16.5323C16.5852 -9.06493e-05 16.6377 0.00989131 16.6867 0.0293759C16.7357 0.0488604 16.7802 0.0774654 16.8177 0.113556L22.8659 5.94686C22.9033 5.98304 22.933 6.02598 22.9532 6.07322C22.9734 6.12047 22.9838 6.17109 22.9837 6.22219V10.0978C22.9837 10.1489 22.9732 10.1995 22.953 10.2467C22.9327 10.2938 22.903 10.3367 22.8656 10.3728C22.8281 10.4089 22.7837 10.4376 22.7348 10.4571C22.6858 10.4767 22.6334 10.4867 22.5805 10.4867Z" fill="#3E00FF"/>
<path d="M20.5644 27.9998H4.43588C3.79425 27.9998 3.17889 27.754 2.72519 27.3164C2.27149 26.8788 2.0166 26.2854 2.0166 25.6665V19.8332C2.0166 19.7301 2.05908 19.6312 2.1347 19.5582C2.21032 19.4853 2.31288 19.4443 2.41981 19.4443C2.52675 19.4443 2.62931 19.4853 2.70493 19.5582C2.78055 19.6312 2.82303 19.7301 2.82303 19.8332V25.6665C2.82303 26.0791 2.99295 26.4747 3.29542 26.7665C3.59789 27.0582 4.00812 27.2221 4.43588 27.2221H20.5644C20.9921 27.2221 21.4024 27.0582 21.7048 26.7665C22.0073 26.4747 22.1772 26.0791 22.1772 25.6665V19.8332C22.1772 19.7301 22.2197 19.6312 22.2953 19.5582C22.371 19.4853 22.4735 19.4443 22.5805 19.4443C22.6874 19.4443 22.7899 19.4853 22.8656 19.5582C22.9412 19.6312 22.9837 19.7301 22.9837 19.8332V25.6665C22.9837 26.2854 22.7288 26.8788 22.2751 27.3164C21.8214 27.754 21.206 27.9998 20.5644 27.9998Z" fill="#3E00FF"/>
<path d="M18.5484 20.2221H6.45204C6.3451 20.2221 6.24254 20.1811 6.16693 20.1082C6.09131 20.0353 6.04883 19.9364 6.04883 19.8332C6.04883 19.7301 6.09131 19.6312 6.16693 19.5582C6.24254 19.4853 6.3451 19.4443 6.45204 19.4443H18.5484C18.6554 19.4443 18.7579 19.4853 18.8335 19.5582C18.9092 19.6312 18.9516 19.7301 18.9516 19.8332C18.9516 19.9364 18.9092 20.0353 18.8335 20.1082C18.7579 20.1811 18.6554 20.2221 18.5484 20.2221Z" fill="#3E00FF"/>
<path d="M12.5002 24.1108H6.45204C6.3451 24.1108 6.24254 24.0698 6.16693 23.9969C6.09131 23.9239 6.04883 23.825 6.04883 23.7219C6.04883 23.6188 6.09131 23.5198 6.16693 23.4469C6.24254 23.374 6.3451 23.333 6.45204 23.333H12.5002C12.6072 23.333 12.7097 23.374 12.7853 23.4469C12.861 23.5198 12.9034 23.6188 12.9034 23.7219C12.9034 23.825 12.861 23.9239 12.7853 23.9969C12.7097 24.0698 12.6072 24.1108 12.5002 24.1108Z" fill="#3E00FF"/>
<path d="M22.5799 20.2219H2.41928C1.77764 20.2219 1.16229 19.976 0.70859 19.5385C0.254887 19.1009 0 18.5074 0 17.8885V11.9129C0 11.2941 0.254887 10.7006 0.70859 10.263C1.16229 9.82542 1.77764 9.57959 2.41928 9.57959H2.43541L22.596 9.7087C23.2344 9.71443 23.8448 9.96256 24.2947 10.3993C24.7447 10.8361 24.9981 11.4263 25 12.042V17.8885C25 18.195 24.9374 18.4985 24.8158 18.7816C24.6941 19.0648 24.5159 19.322 24.2911 19.5387C24.0664 19.7554 23.7996 19.9273 23.506 20.0445C23.2124 20.1617 22.8977 20.222 22.5799 20.2219ZM2.41928 10.3574C1.99152 10.3574 1.58129 10.5213 1.27882 10.813C0.97635 11.1047 0.806426 11.5004 0.806426 11.9129V17.8885C0.806426 18.3011 0.97635 18.6968 1.27882 18.9885C1.58129 19.2802 1.99152 19.4441 2.41928 19.4441H22.5799C23.0077 19.4441 23.4179 19.2802 23.7204 18.9885C24.0228 18.6968 24.1928 18.3011 24.1928 17.8885V12.042C24.1915 11.6315 24.0225 11.2379 23.7224 10.9467C23.4223 10.6555 23.0153 10.4902 22.5896 10.4865L2.42895 10.3574H2.41928Z" fill="#3E00FF"/>
<path d="M10.8602 12.6528L9.71023 16.7999H8.89735L8.04093 13.7495L7.26273 16.7999H6.46598L5.29102 12.6528H6.11357L6.94499 15.676L7.71997 12.6528H8.50462L9.36185 15.676L10.178 12.6528H10.8602Z" fill="#3E00FF"/>
<path d="M12.4267 16.8638C11.9563 16.8638 11.5971 16.7007 11.3493 16.3746C11.102 16.0501 10.9715 15.6565 10.9775 15.2538C10.9631 14.8398 11.1098 14.4355 11.3888 14.1206C11.5232 13.9718 11.6905 13.8539 11.8783 13.7756C12.0662 13.6973 12.2698 13.6605 12.4743 13.6679C12.6718 13.6629 12.868 13.6997 13.0491 13.7758C13.2303 13.8518 13.3919 13.9653 13.5226 14.1082C13.7968 14.4016 13.9339 14.7835 13.9339 15.2538C13.9339 15.7381 13.7917 16.127 13.5073 16.4205C13.3706 16.5647 13.2034 16.6789 13.0169 16.7554C12.8305 16.8319 12.6292 16.8689 12.4267 16.8638ZM12.4517 16.2929C12.9355 16.2929 13.1775 15.9455 13.1775 15.2507C13.1775 14.937 13.1197 14.6894 13.0041 14.5079C12.9496 14.42 12.8712 14.3481 12.7774 14.3002C12.6835 14.2522 12.5779 14.2299 12.4718 14.2357C12.3621 14.2295 12.2527 14.2524 12.1554 14.3019C12.0582 14.3514 11.9769 14.4256 11.9203 14.5165C11.8004 14.7037 11.7404 14.9523 11.7404 15.2624C11.7404 15.5968 11.8039 15.8519 11.9307 16.0277C11.9867 16.1113 12.064 16.1796 12.1553 16.226C12.2465 16.2725 12.3486 16.2955 12.4517 16.2929Z" fill="#3E00FF"/>
<path d="M15.3112 16.8001H14.5967V13.7317H15.2418V14.4667C15.3343 14.181 15.4614 13.9736 15.6233 13.8445C15.759 13.7229 15.9357 13.6528 16.1208 13.647H16.2152V14.389C15.8496 14.389 15.6077 14.5015 15.4894 14.7265C15.377 14.9275 15.3159 15.1515 15.3112 15.3799V16.8001Z" fill="#3E00FF"/>
<path d="M19.3472 16.7999H18.6763V16.1777C18.4914 16.6335 18.1785 16.8614 17.7376 16.8614C17.558 16.8677 17.3799 16.8274 17.222 16.7446C17.0641 16.6619 16.9322 16.5396 16.8401 16.3908C16.632 16.0771 16.528 15.6882 16.528 15.2242C16.5178 14.8241 16.63 14.4299 16.8506 14.0909C16.9459 13.9384 17.0818 13.8133 17.2441 13.7283C17.4065 13.6434 17.5894 13.6019 17.7739 13.6079C18.1836 13.6079 18.4682 13.7894 18.6279 14.1524V12.6528H19.3464L19.3472 16.7999ZM18.6295 14.9893C18.6295 14.7404 18.568 14.5465 18.4449 14.4075C18.3869 14.3401 18.3138 14.2863 18.2311 14.2502C18.1484 14.2141 18.0582 14.1966 17.9675 14.199C17.8674 14.1971 17.7685 14.2208 17.6811 14.2678C17.5937 14.3149 17.5208 14.3835 17.4699 14.4666C17.35 14.645 17.2901 14.9112 17.2901 15.2654C17.2901 15.9498 17.5126 16.292 17.9578 16.292C18.0477 16.2908 18.1363 16.2704 18.2171 16.2324C18.298 16.1943 18.3691 16.1395 18.4255 16.0719C18.5648 15.9158 18.6376 15.7146 18.6295 15.5088V14.9893Z" fill="#3E00FF"/>
</svg>
