<svg width="41" height="36" viewBox="0 0 41 36" fill="none" xmlns="http://www.w3.org/2000/svg">
<rect x="1.14603" y="1.26383" width="38" height="33" rx="3" transform="rotate(-0.38116 1.14603 1.26383)" stroke="#3E00FF" stroke-width="2"/>
<path d="M15.8028 15.9945C16.2422 16.7775 16.8426 17.7254 17.3401 18.652C17.8491 19.595 18.5947 20.9017 18.5947 20.9017C18.5947 20.9017 20.7308 16.5262 22.2695 14.2523C26.1957 8.46465 29.8769 7.0731 29.8769 7.0731C29.8769 7.0731 29.5146 10.1528 29.5628 11.3922C29.618 12.8087 30.2344 14.4373 30.2344 14.4373C30.2344 14.4373 26.8367 16.3805 23.626 19.7835C21.6008 21.9333 18.8867 26.1466 18.8867 26.1466C18.8867 26.1466 16.555 23.4336 14.7234 22.0566C12.6909 20.5259 10.2662 19.2912 10.2662 19.2912C10.2662 19.2912 12.2628 18.005 13.2754 17.3617C14.2938 16.724 15.8028 15.9945 15.8028 15.9945Z" fill="#F68932"/>
</svg>
