<svg width="70" height="20" viewBox="0 0 70 20" fill="none" xmlns="http://www.w3.org/2000/svg">
<path d="M33.3232 13.6396V15H28.3262V13.6396H33.3232ZM28.8047 5.04688V15H27.0889V5.04688H28.8047ZM34.1709 11.3838V11.2266C34.1709 10.6934 34.2484 10.1989 34.4033 9.74316C34.5583 9.28288 34.7816 8.88411 35.0732 8.54688C35.3695 8.20508 35.7295 7.94076 36.1533 7.75391C36.5817 7.5625 37.0648 7.4668 37.6025 7.4668C38.1449 7.4668 38.6279 7.5625 39.0518 7.75391C39.4801 7.94076 39.8424 8.20508 40.1387 8.54688C40.4349 8.88411 40.6605 9.28288 40.8154 9.74316C40.9704 10.1989 41.0479 10.6934 41.0479 11.2266V11.3838C41.0479 11.917 40.9704 12.4115 40.8154 12.8672C40.6605 13.3229 40.4349 13.7217 40.1387 14.0635C39.8424 14.4007 39.4824 14.665 39.0586 14.8564C38.6348 15.0433 38.154 15.1367 37.6162 15.1367C37.0739 15.1367 36.5885 15.0433 36.1602 14.8564C35.7363 14.665 35.3763 14.4007 35.0801 14.0635C34.7839 13.7217 34.5583 13.3229 34.4033 12.8672C34.2484 12.4115 34.1709 11.917 34.1709 11.3838ZM35.8184 11.2266V11.3838C35.8184 11.7165 35.8525 12.0309 35.9209 12.3271C35.9893 12.6234 36.0964 12.8831 36.2422 13.1064C36.388 13.3298 36.5749 13.5052 36.8027 13.6328C37.0306 13.7604 37.3018 13.8242 37.6162 13.8242C37.9215 13.8242 38.1859 13.7604 38.4092 13.6328C38.637 13.5052 38.8239 13.3298 38.9697 13.1064C39.1156 12.8831 39.2227 12.6234 39.291 12.3271C39.3639 12.0309 39.4004 11.7165 39.4004 11.3838V11.2266C39.4004 10.8984 39.3639 10.5885 39.291 10.2969C39.2227 10.0007 39.1133 9.73861 38.9629 9.51074C38.8171 9.28288 38.6302 9.10514 38.4023 8.97754C38.179 8.84538 37.9124 8.7793 37.6025 8.7793C37.2926 8.7793 37.0238 8.84538 36.7959 8.97754C36.5726 9.10514 36.388 9.28288 36.2422 9.51074C36.0964 9.73861 35.9893 10.0007 35.9209 10.2969C35.8525 10.5885 35.8184 10.8984 35.8184 11.2266ZM47.166 7.60352H48.6631V14.7949C48.6631 15.4603 48.5218 16.0254 48.2393 16.4902C47.9567 16.9551 47.5625 17.3083 47.0566 17.5498C46.5508 17.7959 45.9652 17.9189 45.2998 17.9189C45.0173 17.9189 44.7028 17.8779 44.3564 17.7959C44.0146 17.7139 43.682 17.5817 43.3584 17.3994C43.0394 17.2217 42.7728 16.987 42.5586 16.6953L43.3311 15.7246C43.5954 16.0391 43.887 16.2692 44.2061 16.415C44.5251 16.5609 44.86 16.6338 45.2109 16.6338C45.5892 16.6338 45.9105 16.5632 46.1748 16.4219C46.4437 16.2852 46.651 16.0824 46.7969 15.8135C46.9427 15.5446 47.0156 15.2165 47.0156 14.8291V9.27832L47.166 7.60352ZM42.1416 11.3838V11.2402C42.1416 10.6797 42.21 10.1693 42.3467 9.70898C42.4834 9.24414 42.6794 8.84538 42.9346 8.5127C43.1898 8.17546 43.4997 7.91797 43.8643 7.74023C44.2288 7.55794 44.6413 7.4668 45.1016 7.4668C45.5801 7.4668 45.988 7.55339 46.3252 7.72656C46.667 7.89974 46.9518 8.14811 47.1797 8.47168C47.4076 8.79069 47.5853 9.1735 47.7129 9.62012C47.8451 10.0622 47.943 10.5544 48.0068 11.0967V11.5547C47.9476 12.0833 47.8473 12.5664 47.7061 13.0039C47.5648 13.4414 47.3779 13.8197 47.1455 14.1387C46.9131 14.4577 46.626 14.7038 46.2842 14.877C45.9469 15.0501 45.5482 15.1367 45.0879 15.1367C44.6367 15.1367 44.2288 15.0433 43.8643 14.8564C43.5042 14.6696 43.1943 14.4076 42.9346 14.0703C42.6794 13.7331 42.4834 13.3366 42.3467 12.8809C42.21 12.4206 42.1416 11.9215 42.1416 11.3838ZM43.7891 11.2402V11.3838C43.7891 11.721 43.821 12.0355 43.8848 12.3271C43.9531 12.6188 44.0557 12.8763 44.1924 13.0996C44.3337 13.3184 44.5114 13.4915 44.7256 13.6191C44.9443 13.7422 45.2018 13.8037 45.498 13.8037C45.8854 13.8037 46.2021 13.7217 46.4482 13.5576C46.6989 13.3936 46.8903 13.1725 47.0225 12.8945C47.1592 12.612 47.2549 12.2975 47.3096 11.9512V10.7139C47.2822 10.445 47.2253 10.1943 47.1387 9.96191C47.0566 9.72949 46.945 9.52669 46.8037 9.35352C46.6624 9.17578 46.4847 9.03906 46.2705 8.94336C46.0563 8.8431 45.8034 8.79297 45.5117 8.79297C45.2155 8.79297 44.958 8.85677 44.7393 8.98438C44.5205 9.11198 44.3405 9.28743 44.1992 9.51074C44.0625 9.73405 43.96 9.99382 43.8916 10.29C43.8232 10.5863 43.7891 10.903 43.7891 11.2402ZM50.0576 11.3838V11.2266C50.0576 10.6934 50.1351 10.1989 50.29 9.74316C50.445 9.28288 50.6683 8.88411 50.96 8.54688C51.2562 8.20508 51.6162 7.94076 52.04 7.75391C52.4684 7.5625 52.9515 7.4668 53.4893 7.4668C54.0316 7.4668 54.5146 7.5625 54.9385 7.75391C55.3669 7.94076 55.7292 8.20508 56.0254 8.54688C56.3216 8.88411 56.5472 9.28288 56.7021 9.74316C56.8571 10.1989 56.9346 10.6934 56.9346 11.2266V11.3838C56.9346 11.917 56.8571 12.4115 56.7021 12.8672C56.5472 13.3229 56.3216 13.7217 56.0254 14.0635C55.7292 14.4007 55.3691 14.665 54.9453 14.8564C54.5215 15.0433 54.0407 15.1367 53.5029 15.1367C52.9606 15.1367 52.4753 15.0433 52.0469 14.8564C51.623 14.665 51.263 14.4007 50.9668 14.0635C50.6706 13.7217 50.445 13.3229 50.29 12.8672C50.1351 12.4115 50.0576 11.917 50.0576 11.3838ZM51.7051 11.2266V11.3838C51.7051 11.7165 51.7393 12.0309 51.8076 12.3271C51.876 12.6234 51.9831 12.8831 52.1289 13.1064C52.2747 13.3298 52.4616 13.5052 52.6895 13.6328C52.9173 13.7604 53.1885 13.8242 53.5029 13.8242C53.8083 13.8242 54.0726 13.7604 54.2959 13.6328C54.5238 13.5052 54.7106 13.3298 54.8564 13.1064C55.0023 12.8831 55.1094 12.6234 55.1777 12.3271C55.2507 12.0309 55.2871 11.7165 55.2871 11.3838V11.2266C55.2871 10.8984 55.2507 10.5885 55.1777 10.2969C55.1094 10.0007 55 9.73861 54.8496 9.51074C54.7038 9.28288 54.5169 9.10514 54.2891 8.97754C54.0658 8.84538 53.7992 8.7793 53.4893 8.7793C53.1794 8.7793 52.9105 8.84538 52.6826 8.97754C52.4593 9.10514 52.2747 9.28288 52.1289 9.51074C51.9831 9.73861 51.876 10.0007 51.8076 10.2969C51.7393 10.5885 51.7051 10.8984 51.7051 11.2266ZM62.7656 13.2568V7.60352H64.4199V15H62.8613L62.7656 13.2568ZM62.998 11.7188L63.5518 11.7051C63.5518 12.2018 63.4971 12.6598 63.3877 13.0791C63.2783 13.4938 63.1097 13.8561 62.8818 14.166C62.654 14.4714 62.3623 14.7106 62.0068 14.8838C61.6514 15.0524 61.2253 15.1367 60.7285 15.1367C60.3685 15.1367 60.0381 15.0843 59.7373 14.9795C59.4365 14.8747 59.1768 14.7129 58.958 14.4941C58.7438 14.2754 58.5775 13.9906 58.459 13.6396C58.3405 13.2887 58.2812 12.8695 58.2812 12.3818V7.60352H59.9287V12.3955C59.9287 12.6644 59.9606 12.89 60.0244 13.0723C60.0882 13.25 60.1748 13.3936 60.2842 13.5029C60.3936 13.6123 60.5212 13.6898 60.667 13.7354C60.8128 13.7809 60.9678 13.8037 61.1318 13.8037C61.6012 13.8037 61.9704 13.7126 62.2393 13.5303C62.5127 13.3434 62.7064 13.0928 62.8203 12.7783C62.9388 12.4639 62.998 12.1107 62.998 11.7188ZM69.499 7.60352V8.80664H65.3291V7.60352H69.499ZM66.5322 5.79199H68.1797V12.9561C68.1797 13.1839 68.2116 13.3594 68.2754 13.4824C68.3438 13.6009 68.4372 13.6807 68.5557 13.7217C68.6742 13.7627 68.8132 13.7832 68.9727 13.7832C69.0866 13.7832 69.196 13.7764 69.3008 13.7627C69.4056 13.749 69.4899 13.7354 69.5537 13.7217L69.5605 14.9795C69.4238 15.0205 69.2643 15.057 69.082 15.0889C68.9043 15.1208 68.6992 15.1367 68.4668 15.1367C68.0885 15.1367 67.7536 15.0706 67.4619 14.9385C67.1702 14.8018 66.9424 14.5807 66.7783 14.2754C66.6143 13.9701 66.5322 13.5645 66.5322 13.0586V5.79199Z" fill="#3E00FF"/>
<g clip-path="url(#clip0_24_663)">
<path d="M20.0156 18.5156H7.54687C7.00325 18.5156 6.5625 18.1169 6.5625 17.625V14.0625C6.5625 13.5706 7.00325 13.1719 7.54687 13.1719C8.09049 13.1719 8.53125 13.5706 8.53125 14.0625V16.7344H19.0312V4.26562H8.53125V6.93749C8.53125 7.42934 8.09049 7.82811 7.54687 7.82811C7.00325 7.82811 6.5625 7.42934 6.5625 6.93749V3.375C6.5625 2.88308 7.00325 2.48438 7.54687 2.48438H20.0156C20.5592 2.48438 21 2.88308 21 3.375V17.625C21 18.1169 20.5593 18.5156 20.0156 18.5156Z" fill="#F68932"/>
<path d="M14.7654 9.6094H3.36082L4.63354 8.4579C5.01798 8.11007 5.01798 7.54619 4.63354 7.19837C4.24918 6.85054 3.62578 6.85054 3.24143 7.19837L0.288309 9.87024C0.288103 9.87042 0.28798 9.87061 0.287734 9.87076C0.265012 9.89135 0.24352 9.91299 0.223176 9.93548C0.213742 9.94594 0.205539 9.95693 0.196598 9.96765C0.186303 9.98019 0.175516 9.9924 0.165877 10.0054C0.156362 10.0183 0.148158 10.0316 0.139422 10.0448C0.13167 10.0566 0.123549 10.0681 0.116371 10.0802C0.108373 10.0936 0.101606 10.1075 0.0944691 10.1212C0.0879066 10.1338 0.0809339 10.1462 0.0750277 10.1591C0.0688754 10.1725 0.0638715 10.1863 0.0584984 10.1999C0.0530434 10.2137 0.0472191 10.2272 0.0425434 10.2413C0.0379496 10.2551 0.0344633 10.2691 0.0306079 10.283C0.0266704 10.2973 0.0222817 10.3113 0.0190415 10.3258C0.0154321 10.342 0.0133403 10.3584 0.0107563 10.3749C0.00886961 10.3872 0.00624462 10.3994 0.00476806 10.412C-0.00158935 10.4706 -0.00158935 10.5295 0.00476806 10.5881C0.00616259 10.6008 0.0088286 10.6131 0.0107973 10.6257C0.0133403 10.6419 0.0154731 10.6581 0.0190005 10.6742C0.0221997 10.6889 0.0266704 10.7031 0.0306899 10.7175C0.0345453 10.7312 0.0378266 10.7451 0.0424203 10.7587C0.0472191 10.7729 0.0531254 10.7867 0.0586215 10.8006C0.0639535 10.8142 0.0688754 10.8277 0.0749046 10.841C0.0809339 10.854 0.0879476 10.8666 0.0946741 10.8793C0.101688 10.8929 0.108373 10.9066 0.116207 10.9199C0.123508 10.9322 0.131834 10.9438 0.139627 10.9558C0.14824 10.9688 0.156362 10.9819 0.165672 10.9946C0.175598 11.008 0.186549 11.0206 0.197172 11.0334C0.205826 11.0438 0.213783 11.0544 0.222889 11.0645C0.243561 11.0872 0.265299 11.1092 0.288391 11.13L3.2413 13.8018C3.4335 13.9757 3.68546 14.0627 3.93734 14.0627C4.18922 14.0626 4.44122 13.9757 4.63341 13.8018C5.01785 13.454 5.01785 12.8901 4.63341 12.5423L3.3607 11.3907H14.7653C15.3089 11.3907 15.7497 10.9919 15.7497 10.5001C15.7498 10.0081 15.3091 9.6094 14.7654 9.6094Z" fill="#3E00FF"/>
</g>
<defs>
<clipPath id="clip0_24_663">
<rect width="21" height="19" fill="white" transform="translate(0 1)"/>
</clipPath>
</defs>
</svg>
