<svg width="26" height="29" viewBox="0 0 26 29" fill="none" xmlns="http://www.w3.org/2000/svg">
<path d="M23.2932 7.16092H17.245C17.1381 7.16092 17.0355 7.11994 16.9599 7.04701C16.8843 6.97408 16.8418 6.87517 16.8418 6.77203V0.938694C16.8418 0.835554 16.8843 0.736638 16.9599 0.663708C17.0355 0.590777 17.1381 0.549805 17.245 0.549805C17.3519 0.549805 17.4545 0.590777 17.5301 0.663708C17.6057 0.736638 17.6482 0.835554 17.6482 0.938694V6.38314H23.2932C23.4001 6.38314 23.5027 6.42411 23.5783 6.49704C23.6539 6.56997 23.6964 6.66889 23.6964 6.77203C23.6964 6.87517 23.6539 6.97408 23.5783 7.04701C23.5027 7.11994 23.4001 7.16092 23.2932 7.16092Z" fill="#3E00FF"/>
<path d="M23.2924 11.0366C23.1854 11.0366 23.0829 10.9956 23.0073 10.9227C22.9316 10.8498 22.8892 10.7508 22.8892 10.6477V6.93303L17.0772 1.32758H5.14779C4.72004 1.32758 4.3098 1.49147 4.00733 1.78319C3.70487 2.07492 3.53494 2.47058 3.53494 2.88314V10.5186C3.53494 10.6217 3.49246 10.7206 3.41684 10.7936C3.34123 10.8665 3.23867 10.9075 3.13173 10.9075C3.02479 10.9075 2.92223 10.8665 2.84661 10.7936C2.771 10.7206 2.72852 10.6217 2.72852 10.5186V2.88314C2.72852 2.2643 2.9834 1.67081 3.43711 1.23322C3.89081 0.795638 4.50616 0.549805 5.14779 0.549805H17.2442C17.2972 0.549714 17.3496 0.559696 17.3986 0.579181C17.4476 0.598665 17.4921 0.62727 17.5297 0.663361L23.5778 6.49669C23.6153 6.53288 23.6449 6.57582 23.6651 6.62306C23.6853 6.6703 23.6957 6.72092 23.6956 6.77203V10.6477C23.6956 10.6988 23.6852 10.7493 23.6649 10.7965C23.6446 10.8437 23.6149 10.8866 23.5775 10.9227C23.54 10.9588 23.4956 10.9874 23.4467 11.007C23.3978 11.0265 23.3453 11.0366 23.2924 11.0366Z" fill="#3E00FF"/>
<path d="M21.2763 28.5497H5.14779C4.50616 28.5497 3.89081 28.3039 3.43711 27.8663C2.9834 27.4287 2.72852 26.8352 2.72852 26.2164V20.383C2.72852 20.2799 2.771 20.181 2.84661 20.108C2.92223 20.0351 3.02479 19.9941 3.13173 19.9941C3.23867 19.9941 3.34123 20.0351 3.41684 20.108C3.49246 20.181 3.53494 20.2799 3.53494 20.383V26.2164C3.53494 26.6289 3.70487 27.0246 4.00733 27.3163C4.3098 27.608 4.72004 27.7719 5.14779 27.7719H21.2763C21.7041 27.7719 22.1143 27.608 22.4168 27.3163C22.7192 27.0246 22.8892 26.6289 22.8892 26.2164V20.383C22.8892 20.2799 22.9316 20.181 23.0073 20.108C23.0829 20.0351 23.1854 19.9941 23.2924 19.9941C23.3993 19.9941 23.5019 20.0351 23.5775 20.108C23.6531 20.181 23.6956 20.2799 23.6956 20.383V26.2164C23.6956 26.8352 23.4407 27.4287 22.987 27.8663C22.5333 28.3039 21.9179 28.5497 21.2763 28.5497Z" fill="#3E00FF"/>
<path d="M19.2603 20.7719H7.16395C7.05702 20.7719 6.95446 20.7309 6.87884 20.658C6.80322 20.5851 6.76074 20.4862 6.76074 20.383C6.76074 20.2799 6.80322 20.181 6.87884 20.108C6.95446 20.0351 7.05702 19.9941 7.16395 19.9941H19.2603C19.3673 19.9941 19.4698 20.0351 19.5455 20.108C19.6211 20.181 19.6636 20.2799 19.6636 20.383C19.6636 20.4862 19.6211 20.5851 19.5455 20.658C19.4698 20.7309 19.3673 20.7719 19.2603 20.7719Z" fill="#3E00FF"/>
<path d="M13.2121 24.6611H7.16395C7.05702 24.6611 6.95446 24.6201 6.87884 24.5472C6.80322 24.4742 6.76074 24.3753 6.76074 24.2722C6.76074 24.169 6.80322 24.0701 6.87884 23.9972C6.95446 23.9243 7.05702 23.8833 7.16395 23.8833H13.2121C13.3191 23.8833 13.4216 23.9243 13.4973 23.9972C13.5729 24.0701 13.6154 24.169 13.6154 24.2722C13.6154 24.3753 13.5729 24.4742 13.4973 24.5472C13.4216 24.6201 13.3191 24.6611 13.2121 24.6611Z" fill="#3E00FF"/>
<path d="M23.2928 20.7722H3.13217C2.49054 20.7722 1.87518 20.5264 1.42148 20.0888C0.967778 19.6512 0.712891 19.0577 0.712891 18.4389V12.4632C0.712891 11.8444 0.967778 11.2509 1.42148 10.8133C1.87518 10.3757 2.49054 10.1299 3.13217 10.1299H3.1483L23.3089 10.259C23.9473 10.2647 24.5576 10.5129 25.0076 10.9496C25.4576 11.3864 25.711 11.9766 25.7129 12.5923V18.4389C25.7129 18.7454 25.6503 19.0488 25.5287 19.332C25.407 19.6151 25.2288 19.8724 25.004 20.0891C24.7793 20.3058 24.5125 20.4776 24.2189 20.5948C23.9253 20.712 23.6106 20.7723 23.2928 20.7722ZM3.13217 10.9077C2.70441 10.9077 2.29418 11.0715 1.99171 11.3633C1.68924 11.655 1.51932 12.0507 1.51932 12.4632V18.4389C1.51932 18.8514 1.68924 19.2471 1.99171 19.5388C2.29418 19.8306 2.70441 19.9944 3.13217 19.9944H23.2928C23.7206 19.9944 24.1308 19.8306 24.4333 19.5388C24.7357 19.2471 24.9057 18.8514 24.9057 18.4389V12.5923C24.9044 12.1818 24.7354 11.7882 24.4353 11.497C24.1352 11.2058 23.7282 11.0405 23.3025 11.0368L3.14184 10.9077H3.13217Z" fill="#3E00FF"/>
<path d="M8.77693 17.3502H8.00195V13.2031H9.76319C10.2653 13.2031 10.6376 13.3252 10.8801 13.5695C11.1188 13.8113 11.2495 14.134 11.2439 14.4678C11.2383 14.8017 11.0969 15.1201 10.8502 15.3545C10.5778 15.593 10.2196 15.7194 9.85189 15.7068H8.77693V17.3502ZM8.77693 15.0659H9.69383C9.93307 15.0659 10.1159 15.0091 10.2422 14.8956C10.3053 14.8375 10.3548 14.767 10.3874 14.6889C10.4199 14.6109 10.4348 14.527 10.4309 14.4429C10.4339 14.2808 10.3711 14.1239 10.2559 14.0058C10.1392 13.8845 9.92877 13.8238 9.62448 13.8238H8.77693V15.0659Z" fill="#3E00FF"/>
<path d="M11.8418 17.3502V13.2031H13.4305C14.0165 13.2031 14.4869 13.403 14.8417 13.8028C15.1965 14.2026 15.3739 14.6952 15.3739 15.2806C15.3739 15.8681 15.1912 16.3593 14.8256 16.7545C14.46 17.1496 13.9372 17.3482 13.2571 17.3502H11.8418ZM12.6385 16.7397H13.2837C13.4502 16.7418 13.6151 16.7092 13.7674 16.6443C13.9196 16.5793 14.0556 16.4835 14.1659 16.3632C14.4073 16.1123 14.528 15.7387 14.528 15.2425C14.5399 14.8757 14.4287 14.5151 14.2111 14.2142C14.1193 14.0823 13.9946 13.9746 13.8485 13.9011C13.7024 13.8276 13.5396 13.7906 13.3748 13.7935H12.6377L12.6385 16.7397Z" fill="#3E00FF"/>
<path d="M16.8884 17.3502H16.0908V13.2031H18.8093V13.844H16.8884V14.9772H18.4004V15.5995H16.8884V17.3502Z" fill="#3E00FF"/>
</svg>
