<svg width="17" height="17" viewBox="0 0 17 17" fill="none" xmlns="http://www.w3.org/2000/svg">
<g clip-path="url(#clip0_309_868)">
<path d="M3.85504 7.093L0.946015 7.11235C0.544368 7.11502 0.220916 7.44281 0.223588 7.84445C0.22626 8.2461 0.554044 8.56955 0.955692 8.56688L3.86472 8.54753C4.26637 8.54485 4.58982 8.21707 4.58715 7.81542C4.58444 7.41378 4.25666 7.09032 3.85504 7.093Z" fill="#2D50A7"/>
<path d="M15.4913 7.01536L12.5822 7.03471C12.1806 7.03738 11.8571 7.36517 11.8598 7.76682C11.8625 8.16846 12.1903 8.49191 12.5919 8.48924L15.501 8.46989C15.9026 8.46722 16.226 8.13943 16.2234 7.73779C16.2207 7.33614 15.8929 7.01269 15.4913 7.01536Z" fill="#73A1FB"/>
<path d="M4.64105 10.3864L2.59775 12.4571C2.31561 12.743 2.31868 13.2034 2.60459 13.4856C2.74753 13.6266 2.93416 13.6964 3.12028 13.6951C3.3064 13.6939 3.49208 13.6216 3.63307 13.4787L5.67637 11.408C5.9585 11.1221 5.95544 10.6616 5.66953 10.3795C5.38361 10.0974 4.92312 10.1005 4.64105 10.3864Z" fill="#355EC9"/>
<path d="M8.17502 0.518599C7.77337 0.521271 7.44992 0.849055 7.45259 1.2507L7.46227 2.7052C7.46494 3.10685 7.79272 3.4303 8.19437 3.42763C8.59602 3.42496 8.91947 3.09717 8.9168 2.69553L8.90712 1.24103C8.90445 0.839379 8.57667 0.515927 8.17502 0.518599Z" fill="#C4D9FD"/>
<path d="M12.8139 2.10368L10.7706 4.17438C10.4885 4.46029 10.4915 4.92075 10.7774 5.20286C10.9204 5.34391 11.107 5.4137 11.2931 5.41246C11.4793 5.41122 11.6649 5.33896 11.8059 5.19602L13.8492 3.12531C14.1314 2.8394 14.1283 2.37894 13.8424 2.09684C13.5565 1.8147 13.096 1.81776 12.8139 2.10368Z" fill="#C4D9FD"/>
<path d="M8.24777 11.4273C7.84613 11.43 7.52267 11.7577 7.52535 12.1594L7.5447 15.0684C7.54737 15.4701 7.87515 15.7935 8.2768 15.7909C8.67845 15.7882 9.0019 15.4604 8.99923 15.0587L8.97988 12.1497C8.9772 11.7481 8.64942 11.4246 8.24777 11.4273Z" fill="#3D6DEB"/>
<path d="M11.8401 10.3381C11.5543 10.0559 11.0937 10.059 10.8116 10.3449C10.5295 10.6308 10.5325 11.0913 10.8184 11.3734L12.8891 13.4167C13.0321 13.5578 13.2187 13.6275 13.4048 13.6263C13.5909 13.625 13.7766 13.5528 13.9176 13.4099C14.1997 13.124 14.1967 12.6635 13.9108 12.3814L11.8401 10.3381Z" fill="#5286FA"/>
</g>
<defs>
<clipPath id="clip0_309_868">
<rect width="16" height="16" fill="white" transform="translate(0.172852 0.208008) rotate(-0.38116)"/>
</clipPath>
</defs>
</svg>
