<svg width="56" height="56" viewBox="0 0 56 56" fill="none" xmlns="http://www.w3.org/2000/svg">
<path opacity="0.4" d="M28.1154 51.0151C40.7758 50.9308 50.971 40.6003 50.8868 27.9409C50.8025 15.2816 40.4708 5.08749 27.8104 5.17172C15.1498 5.25594 4.95475 15.5866 5.03896 28.2459C5.12318 40.9053 15.4548 51.0993 28.1154 51.0151Z" fill="#917BD5"/>
<path d="M27.8855 16.4721C23.1403 16.5037 19.3147 20.3801 19.3462 25.1248C19.3772 29.7779 23.0473 33.5358 27.8851 33.6411C27.9539 33.6407 28.0456 33.6401 28.0914 33.6398C28.1373 33.6394 28.2061 33.639 28.2519 33.6387C28.2748 33.6385 28.2978 33.6384 28.2978 33.6384C32.9273 33.4471 36.5472 29.6637 36.5392 25.0105C36.5076 20.2658 32.6308 16.4405 27.8855 16.4721Z" fill="#917BD5"/>
<path d="M43.619 44.8373C39.5635 48.6236 34.123 50.975 28.117 51.015C22.1109 51.0549 16.6396 48.7761 12.5342 45.0441C13.0705 42.9546 14.5479 41.0422 16.7159 39.5607C22.9463 35.3473 33.1245 35.2796 39.3647 39.41C41.5751 40.8624 43.0549 42.7551 43.619 44.8373Z" fill="#917BD5"/>
</svg>
