<svg width="48" height="47" viewBox="0 0 48 47" fill="none" xmlns="http://www.w3.org/2000/svg">
<path opacity="0.4" d="M24.1154 46.0151C36.7758 45.9308 46.971 35.6003 46.8868 22.9409C46.8025 10.2816 36.4708 0.0874904 23.8104 0.171715C11.1498 0.255941 0.954746 10.5866 1.03896 23.2459C1.12318 35.9053 11.4548 46.0993 24.1154 46.0151Z" fill="#917BD5"/>
<path d="M23.8855 11.4716C19.1403 11.5032 15.3147 15.3797 15.3462 20.1244C15.3772 24.7775 19.0473 28.5353 23.8851 28.6406C23.9539 28.6402 24.0456 28.6396 24.0914 28.6393C24.1373 28.639 24.2061 28.6385 24.2519 28.6382C24.2748 28.638 24.2978 28.6379 24.2978 28.6379C28.9273 28.4466 32.5472 24.6632 32.5392 20.01C32.5076 15.2653 28.6308 11.4401 23.8855 11.4716Z" fill="#917BD5"/>
<path d="M39.619 39.8373C35.5635 43.6236 30.123 45.975 24.117 46.015C18.1109 46.0549 12.6396 43.7761 8.53416 40.0441C9.07046 37.9546 10.5479 36.0422 12.7159 34.5607C18.9463 30.3473 29.1245 30.2796 35.3647 34.41C37.5751 35.8624 39.0549 37.7551 39.619 39.8373Z" fill="#917BD5"/>
</svg>
