<svg width="15" height="15" viewBox="0 0 15 15" fill="none" xmlns="http://www.w3.org/2000/svg">
<path d="M7.09975 0.294724C3.32256 0.319853 0.2646 3.41577 0.289704 7.1893C0.314795 10.9609 3.41369 14.0178 7.19087 13.9927C10.9681 13.9675 14.0298 10.8678 14.0047 7.09806C13.9796 3.32453 10.8788 0.269584 7.09975 0.294724ZM7.18459 13.0478C3.93004 13.0695 1.26087 10.4306 1.23927 7.18298C1.21761 3.92776 3.85154 1.26884 7.10608 1.24719C10.3625 1.22553 13.0335 3.84916 13.0552 7.10438C13.0768 10.3519 10.443 13.0262 7.18459 13.0478Z" fill="#3E00FF"/>
<path d="M5.38207 6.86484C5.52937 7.13546 5.73066 7.4631 5.89744 7.78332C6.06809 8.10925 6.31806 8.56089 6.31806 8.56089C6.31806 8.56089 7.03361 7.04895 7.54914 6.26324C8.86451 4.2634 10.0981 3.78276 10.0981 3.78276C10.0981 3.78276 9.9769 4.84701 9.99315 5.27534C10.0117 5.76486 10.2184 6.32772 10.2184 6.32772C10.2184 6.32772 9.07991 6.99899 8.00411 8.17479C7.32556 8.9176 6.41628 10.3734 6.41628 10.3734C6.41628 10.3734 5.63466 9.4357 5.02076 8.95971C4.3395 8.4306 3.52681 8.00375 3.52681 8.00375C3.52681 8.00375 4.19585 7.55938 4.53516 7.33717C4.87639 7.11685 5.38207 6.86484 5.38207 6.86484Z" fill="#F68932"/>
</svg>
