<svg width="47" height="44" viewBox="0 0 47 44" fill="none" xmlns="http://www.w3.org/2000/svg">
<g clip-path="url(#clip0_35_85)">
<path d="M47 8.17434V35.8284C47 40.3415 43.0891 44 38.2683 44H8.73169C3.90798 44 0 40.3415 0 35.8284V8.17434C0 3.66125 3.90798 0 8.73169 0H38.2673C43.0882 0 46.999 3.66125 46.999 8.17434H47Z" fill="#3E00FF"/>
<path d="M30.71 12.3839H34.7666L30.379 31.6016H23.3022L20.5705 16.0262H19.9915L17.3013 31.6016H10.2235L5.83691 12.3839H9.8935L13.4522 27.9593H13.8661L16.5979 12.3839H24.0066L26.7374 27.9593H27.1513L30.71 12.3839Z" fill="white"/>
<path d="M37.7106 31.6161C39.6174 31.6161 41.1631 30.169 41.1631 28.3839C41.1631 26.5989 39.6174 25.1518 37.7106 25.1518C35.8038 25.1518 34.2581 26.5989 34.2581 28.3839C34.2581 30.169 35.8038 31.6161 37.7106 31.6161Z" fill="#F68932"/>
</g>
<defs>
<clipPath id="clip0_35_85">
<rect width="47" height="44" fill="white"/>
</clipPath>
</defs>
</svg>
