<svg width="30" height="27" viewBox="0 0 30 27" fill="none" xmlns="http://www.w3.org/2000/svg">
<rect width="30" height="27" rx="4" fill="#E2DFFF"/>
<path opacity="0.5" fill-rule="evenodd" clip-rule="evenodd" d="M9.125 14.9062C9.4184 14.9062 9.65625 15.1161 9.65625 15.375C9.65625 16.2721 9.65738 16.8978 9.72931 17.3699C9.79919 17.8286 9.92701 18.0714 10.123 18.2444C10.3191 18.4174 10.5943 18.5301 11.1141 18.5918C11.6491 18.6553 12.3583 18.6562 13.375 18.6562H17.625C18.6417 18.6562 19.3509 18.6553 19.8859 18.5918C20.4057 18.5301 20.6809 18.4174 20.877 18.2444C21.073 18.0714 21.2008 17.8286 21.2707 17.3699C21.3426 16.8978 21.3437 16.2721 21.3437 15.375C21.3437 15.1161 21.5816 14.9062 21.875 14.9062C22.1684 14.9062 22.4062 15.1161 22.4062 15.375V15.4093C22.4062 16.2641 22.4062 16.953 22.3237 17.4949C22.238 18.0574 22.0546 18.5311 21.6283 18.9072C21.2019 19.2835 20.6651 19.4453 20.0275 19.5209C19.4134 19.5937 18.6326 19.5938 17.6639 19.5938H13.3361C12.3674 19.5938 11.5866 19.5937 10.9725 19.5209C10.3349 19.4453 9.79811 19.2835 9.37175 18.9073C8.94539 18.5311 8.76201 18.0574 8.67629 17.4949C8.59372 16.953 8.59374 16.2641 8.59375 15.4093C8.59375 15.3979 8.59375 15.3864 8.59375 15.375C8.59375 15.1161 8.8316 14.9062 9.125 14.9062Z" fill="#3E00FF"/>
<path fill-rule="evenodd" clip-rule="evenodd" d="M15.5003 7.40625C15.6495 7.40625 15.7917 7.46158 15.8924 7.5587L18.7257 10.2931C18.9237 10.4841 18.9087 10.7806 18.6921 10.9553C18.4756 11.13 18.1396 11.1167 17.9416 10.9257L16.0316 9.08237V16C16.0316 16.2589 15.7937 16.4688 15.5003 16.4688C15.2069 16.4688 14.9691 16.2589 14.9691 16V9.08237L13.0591 10.9257C12.8611 11.1167 12.5251 11.13 12.3085 10.9553C12.092 10.7806 12.0769 10.4841 12.2749 10.2931L15.1083 7.5587C15.2089 7.46158 15.3512 7.40625 15.5003 7.40625Z" fill="#3E00FF"/>
</svg>
