<svg width="30" height="28" viewBox="0 0 30 28" fill="none" xmlns="http://www.w3.org/2000/svg">
<rect x="0.000488281" y="0.982422" width="30" height="27" rx="4" fill="#DFFFE2"/>
<path d="M12.0273 13.4174C12.3424 13.9805 12.7729 14.6622 13.1295 15.3285C13.4945 16.0067 14.0291 16.9464 14.0291 16.9464C14.0291 16.9464 15.5605 13.7998 16.6637 12.1646C19.4785 8.00246 22.1178 7.00178 22.1178 7.00178C22.1178 7.00178 21.8581 9.21651 21.8927 10.1079C21.9322 11.1265 22.3742 12.2978 22.3742 12.2978C22.3742 12.2978 19.9383 13.6951 17.6363 16.1423C16.1844 17.6883 14.2385 20.7183 14.2385 20.7183C14.2385 20.7183 12.5667 18.7672 11.2535 17.7769C9.79628 16.6761 8.05783 15.7881 8.05783 15.7881C8.05783 15.7881 9.48932 14.8631 10.2153 14.4006C10.9454 13.942 12.0273 13.4174 12.0273 13.4174Z" fill="#118E4B"/>
</svg>
